<?xml version="1.0" encoding="utf-8" ?>
<svg xmlns="http://www.w3.org/2000/svg" xmlns:xlink="http://www.w3.org/1999/xlink" width="1024" height="1024">
	<path fill="#270332" d="M0 0L1024 0L1024 805.455L1024 958.733L1024 980.016L1024 1024L1023.19 1024L1000.39 1024L993.474 1024L955.282 1024L945.664 1024L891.239 1024L887.5 1024L745.152 1024L715.377 1024L468.715 1024L418.143 1024L330.957 1024L306.541 1024L286.492 1024L188.301 1024L162.954 1024L130.513 1024L84.4099 1024L0 1024L0 978.002L0 938.903L0 926.238L0 906.297L0 891.78L0 727.209L0 12.5848L0 0Z"/>
	<path fill="#590C56" d="M835.244 492.364L836.593 491.598C838.229 493.712 837.487 497.87 837.153 500.411Q836.391 505.931 835.295 511.395C834.332 509.865 833.407 508.566 832.153 507.262C833.328 502.338 834.232 497.325 835.244 492.364Z"/>
	<path fill="#D7AFC6" d="M395.067 524.652C395.288 523.982 395.223 524.265 395.336 523.613C395.515 522.588 395.625 521.795 396.176 520.883L397.03 520.981C397.601 542.53 396.647 564.167 397.598 585.674L395.936 583.957C396.085 579.07 395.613 573.943 395.582 569.018Q395.588 546.832 395.067 524.652Z"/>
	<path fill="#CEA3D3" d="M380.746 416.211C381.654 409.738 390.576 370.222 393.857 367.554C389.62 382.412 382.691 401.087 381.698 416.306C385.012 423.355 387.715 430.271 389.575 437.868C394.584 458.318 395.789 480.872 396.647 501.847C396.903 508.095 397.462 514.74 397.03 520.981L396.176 520.883C395.625 521.795 395.515 522.588 395.336 523.613C395.223 524.265 395.288 523.982 395.067 524.652C393.851 514.77 394.277 504.552 393.468 494.596C393.867 478.013 390.968 453.462 386.927 437.196C385.265 430.507 382.246 423.86 380.928 417.186L380.746 416.211Z"/>
	<path fill="#5F0F6C" d="M377.546 475.694C381.742 468.876 372.302 438.374 374.53 428.248C375.457 424.033 378.76 420.033 380.746 416.211L380.928 417.186C382.246 423.86 385.265 430.507 386.927 437.196C390.968 453.462 393.867 478.013 393.468 494.596C391.525 491.453 393.693 487.096 390.656 485.961C389.597 486.28 388.938 486.715 388.051 487.339C386.51 488.422 385.651 488.458 383.807 488.344C383.627 489.085 383.473 489.848 383.279 490.583C383.013 491.59 382.724 491.971 382.034 492.707C381.259 492.432 381.256 492.626 380.969 491.965C380.533 490.965 380.676 489.911 380.727 488.849L380.005 488.358C378.988 491.68 381.633 496.031 379.63 498.979Q378.929 487.306 377.546 475.694Z"/>
	<path fill="#5F0F6C" d="M518.109 295.796C563.918 264.96 622.768 248.671 677.725 259.311Q683.029 260.375 688.269 261.719Q693.51 263.062 698.671 264.682Q703.833 266.301 708.902 268.192Q713.97 270.082 718.932 272.239Q723.893 274.395 728.733 276.812Q733.573 279.228 738.279 281.897Q742.984 284.567 747.541 287.482Q752.099 290.397 756.495 293.549C760.963 296.707 767.289 300.81 770.3 305.454C770.64 305.978 770.708 306.182 770.934 306.702C723.714 278.075 669.818 268.647 615.87 281.817C584.192 289.55 553.216 305.279 527.994 325.904C524.377 316.112 522.512 305.167 518.109 295.796Z"/>
	<path fill="#C990D7" d="M815.685 293.331C820.69 299.331 824.441 306.802 827.942 313.781C841.716 341.241 849.323 369.359 854.127 399.623Q855.935 414.891 857.339 430.202C857.821 435.691 857.767 441.633 858.742 447.014L859.557 446.984C870.537 451.745 878.189 458.838 882.667 470.098C885.705 477.736 887.481 486.934 887.504 495.146L885.965 496.671C885.539 513.111 884.416 528.836 881.323 545.002C872.464 546.335 863.602 547.79 854.695 548.762L854.898 544.827L854.496 544.825C851.399 551.257 850.146 558.829 848.335 565.729C846.228 573.757 843.903 581.861 841.63 589.852C837.313 605.031 831.714 619.9 826.665 634.848C825.009 635.836 824.099 636.789 822.923 638.308C820.944 640.281 819.588 643.505 818.201 645.934C814.13 653.065 809.421 662.009 803.375 667.618Q800.63 670.202 797.79 672.682Q794.951 675.161 792.02 677.533Q789.09 679.905 786.073 682.165Q783.056 684.426 779.956 686.572Q776.856 688.718 773.679 690.746Q770.501 692.775 767.25 694.683Q763.998 696.591 760.678 698.376Q757.357 700.162 753.972 701.821Q750.587 703.481 747.143 705.013Q743.698 706.545 740.198 707.947Q736.699 709.349 733.149 710.619Q729.6 711.889 726.005 713.026Q722.411 714.162 718.776 715.163Q715.141 716.164 711.472 717.029Q707.802 717.893 704.103 718.62Q700.404 719.346 696.68 719.934C606.848 733.416 505.83 688.244 435.14 635.851C415.915 621.603 399.673 608.967 395.936 583.957L397.598 585.674C398.328 589.664 399.355 593.393 400.996 597.113C408.009 613.017 423.772 623.167 437.343 633.018Q443.675 637.704 450.159 642.177Q456.643 646.651 463.272 650.907Q469.9 655.164 476.666 659.199Q483.432 663.234 490.327 667.043Q497.222 670.852 504.24 674.43Q511.258 678.009 518.39 681.354Q525.522 684.698 532.761 687.805Q540 690.911 547.338 693.777C605.022 716.048 676.004 728.742 734.579 702.582C772.943 685.448 800.97 651.073 815.762 612.401C838.62 552.642 848.833 485.844 843.326 422.035C841.583 401.834 837.914 382.001 834.142 362.111C829.405 337.128 826.173 316.83 815.685 293.331Z"/>
	<path fill="#FEFCFD" d="M858.742 447.014L859.557 446.984C870.537 451.745 878.189 458.838 882.667 470.098C885.705 477.736 887.481 486.934 887.504 495.146L885.965 496.671C886.027 495.152 886.254 493.805 885.392 492.466C879.585 490.71 865.863 491.2 858.805 490.421C859.222 481.177 859.086 471.87 858.867 462.622C858.748 457.579 858.039 451.993 858.742 447.014Z"/>
	<path fill="#590C56" d="M663.318 185.969C690.028 184.956 717.404 186.147 743.636 191.568C752.996 193.502 762.406 195.742 771.581 198.43C774.227 199.205 776.7 200.73 779.321 201.389C780.369 201.653 781.219 201.626 782.228 201.267C782.765 200.466 783.223 199.69 783.646 198.823C784.967 199.004 785.743 198.746 786.99 198.368L787.542 198.694C797.017 204.165 807.546 207.9 817.16 213.32C850.535 232.133 886.057 263.046 896.616 301.014C899.783 312.403 901.285 332.179 898.117 343.805C898.04 340.948 898.35 337.332 897.62 334.607L897.548 335.407C897.033 341.747 897.39 348.005 896.487 354.372C893.225 377.383 882.961 402.673 872.45 423.241C870.713 426.64 859.904 445.182 859.557 446.984L858.742 447.014C857.767 441.633 857.821 435.691 857.339 430.202Q855.935 414.891 854.127 399.623C859.735 393.617 868.084 366.668 869.046 358.454C869.698 352.884 869.048 347.234 869.513 341.666L869.597 340.723C869.781 331.898 868.396 322.407 865.746 314.012C855.897 282.814 826.875 260.307 798.844 245.723C738.98 214.58 666.44 212.972 601.989 229.132Q585.067 233.215 568.592 238.837C561.666 241.266 554.82 244.469 547.827 246.612L547.066 246.841C546.835 246.993 546.605 247.147 546.372 247.297C541.901 250.16 535.883 252.125 530.991 254.352Q519.909 259.506 509.153 265.308C473.225 284.62 438.851 310.443 410.767 340.086C407.658 343.368 403.393 346.633 400.852 350.3C397.295 355.433 396.804 362.134 393.857 367.554C390.576 370.222 381.654 409.738 380.746 416.211C378.76 420.033 375.457 424.033 374.53 428.248C372.302 438.374 381.742 468.876 377.546 475.694C376.419 472.447 376.112 468.367 375.525 464.957C374.09 456.616 372.811 448.212 371.088 439.926C369.329 431.465 363.178 416.872 363.798 409.453C365.085 394.043 372.866 369.729 378.819 355.351C379.833 352.903 383.599 345.806 382.767 343.481C385.418 335.757 390.641 329.917 395.835 323.815Q400.279 319.2 404.993 314.861C409.016 311.653 413.157 308.161 416.657 304.381C416.249 303.533 416.371 303.975 416.328 302.806C416.317 302.497 416.316 302.187 416.311 301.878C415.246 302.85 414.281 303.52 413.01 304.206L412.589 304.429C414.734 300.96 426.566 289.525 430.419 288.154C433.657 283.633 439.752 279.501 444.062 276.008C469.822 255.127 497.172 237.964 526.626 222.782C530.698 221.411 541.33 217.051 544.382 214.155C575.32 198.818 628.711 186.594 663.318 185.969Z"/>
	<path fill="#8B3594" d="M430.419 288.154C435.13 286.534 446.777 273.923 456.14 270.333C454.641 273.046 422.034 299.641 416.657 304.381C416.249 303.533 416.371 303.975 416.328 302.806C416.317 302.497 416.316 302.187 416.311 301.878C415.246 302.85 414.281 303.52 413.01 304.206L412.589 304.429C414.734 300.96 426.566 289.525 430.419 288.154Z"/>
	<defs>
		<linearGradient id="gradient_0" gradientUnits="userSpaceOnUse" x1="789.70563" y1="275.12088" x2="806.03894" y2="246.30548">
			<stop offset="0" stop-color="#CCB7CC"/>
			<stop offset="1" stop-color="#CC9DD6"/>
		</linearGradient>
	</defs>
	<path fill="url(#gradient_0)" d="M547.066 246.841C548.052 245.359 553.386 243.761 555.319 243.022Q570.332 237.243 585.765 232.701Q601.198 228.16 616.948 224.886C686.574 210.888 762.112 214.883 822.601 255.356C843.071 269.052 863.649 290.175 868.697 315.067C870.227 322.614 871.327 333.157 869.597 340.723C869.781 331.898 868.396 322.407 865.746 314.012C855.897 282.814 826.875 260.307 798.844 245.723C738.98 214.58 666.44 212.972 601.989 229.132Q585.067 233.215 568.592 238.837C561.666 241.266 554.82 244.469 547.827 246.612L547.066 246.841Z"/>
	<path fill="#C990D7" d="M663.318 185.969C690.028 184.956 717.404 186.147 743.636 191.568C752.996 193.502 762.406 195.742 771.581 198.43C774.227 199.205 776.7 200.73 779.321 201.389C780.369 201.653 781.219 201.626 782.228 201.267C782.765 200.466 783.223 199.69 783.646 198.823C784.967 199.004 785.743 198.746 786.99 198.368L787.542 198.694C797.017 204.165 807.546 207.9 817.16 213.32C850.535 232.133 886.057 263.046 896.616 301.014C899.783 312.403 901.285 332.179 898.117 343.805C898.04 340.948 898.35 337.332 897.62 334.607C897.313 314.592 889.4 294.836 877.728 278.78C867.32 264.463 854.04 252.564 839.798 242.172C805.577 217.201 771.96 204.62 730.18 198.079C648.486 185.288 562.811 209.089 491.674 248.824C479.682 255.522 467.246 262.247 456.14 270.333C446.777 273.923 435.13 286.534 430.419 288.154C433.657 283.633 439.752 279.501 444.062 276.008C469.822 255.127 497.172 237.964 526.626 222.782C530.698 221.411 541.33 217.051 544.382 214.155C575.32 198.818 628.711 186.594 663.318 185.969Z"/>
	<path fill="#3F0443" d="M469.938 646.965C469.763 635.983 469.621 624.904 470.151 613.933C471.729 581.29 474.843 558.358 458.082 528.087C452.206 517.476 444.325 507.901 437.641 497.775C433.532 491.549 429.877 485.186 426.411 478.583C417.573 461.745 415.443 449.843 419.342 431.125C430.971 375.295 471.111 326.408 518.109 295.796C522.512 305.167 524.377 316.112 527.994 325.904L528.011 326.229C522.78 329.654 518.094 334.765 513.651 339.153Q509.612 343.08 505.783 347.212Q501.954 351.343 498.344 355.669Q494.735 359.994 491.356 364.501Q487.977 369.008 484.837 373.685Q481.696 378.362 478.804 383.196Q475.911 388.03 473.274 393.008Q470.636 397.986 468.262 403.094Q465.887 408.202 463.781 413.427C460.853 420.658 458.055 428.114 456.467 435.763C454.893 443.345 454.885 449.602 459.367 456.276C466.941 467.555 477.504 476.729 485.177 488.048C498.592 507.837 498.745 528.415 519.361 544.71C527.534 551.17 536.963 555.684 546.288 560.207C552.173 563.062 560.256 566.006 565.002 570.534C551.111 579.676 537.002 587.079 521.666 593.51C516.907 595.506 502.291 600.244 499.12 602.355C501.127 602.369 503.035 601.276 504.967 600.748C525.683 595.095 550.706 586.955 569.997 577.881C574.074 587.842 580.749 597.303 585.751 606.905C587.148 609.585 588.936 612.512 589.757 615.413L590.106 615.33C591.219 617.837 592.295 620.831 593.887 623.059L594.364 622.984C598.271 632.791 603.189 647.063 608.079 655.903C593.211 661.322 578.188 665.382 563.06 669.929C575.553 668.69 597.176 663.467 608.979 658.821C613.203 671.39 617.936 683.788 621.988 696.41C623.269 700.4 625.12 704.954 625.715 709.075C614.383 708.697 602.211 705.354 591.307 702.35Q577.724 698.565 564.412 693.914Q551.1 689.264 538.115 683.767Q525.129 678.27 512.524 671.949Q499.919 665.629 487.747 658.511C481.644 654.885 475.904 650.792 469.938 646.965Z"/>
	<path fill="#BE3FA9" d="M589.757 615.413L590.106 615.33C591.219 617.837 592.295 620.831 593.887 623.059C587.076 625.707 579.573 627.35 572.495 629.128C559.204 632.465 545.338 635.9 531.725 637.539C540.347 634.823 549.041 632.303 557.51 629.132C568.437 625.041 579.078 620.107 589.757 615.413Z"/>
	<path fill="#5F0F6C" d="M565.002 570.534C560.256 566.006 552.173 563.062 546.288 560.207C536.963 555.684 527.534 551.17 519.361 544.71C498.745 528.415 498.592 507.837 485.177 488.048C477.504 476.729 466.941 467.555 459.367 456.276C454.885 449.602 454.893 443.345 456.467 435.763C458.055 428.114 460.853 420.658 463.781 413.427Q465.887 408.202 468.262 403.094Q470.636 397.986 473.274 393.008Q475.911 388.03 478.804 383.196Q481.696 378.362 484.837 373.685Q487.977 369.008 491.356 364.501Q494.735 359.994 498.344 355.669Q501.954 351.343 505.783 347.212Q509.612 343.08 513.651 339.153C518.094 334.765 522.78 329.654 528.011 326.229C534.821 346.825 540.9 367.676 547.517 388.338C550.695 398.258 553.128 409.524 558.449 418.496C561.949 424.396 566.571 428.85 572.685 431.964C586.803 439.156 616.206 438.666 632.729 439.699C640.856 440.208 649.72 440.581 657.216 444.089C664.827 447.65 669.905 455.091 675.865 460.743C679.728 464.406 683.916 467.427 688.431 470.226C652.822 509.931 609.425 541.48 565.002 570.534Z"/>
	<path fill="#8B3594" d="M517.028 412.079C522.278 411.686 527.237 411.798 532.065 414.206Q532.62 414.488 533.16 414.799Q533.7 415.109 534.224 415.447Q534.747 415.784 535.253 416.148Q535.758 416.512 536.244 416.902Q536.731 417.291 537.196 417.705Q537.662 418.118 538.106 418.555Q538.55 418.992 538.971 419.451Q539.392 419.91 539.789 420.39Q540.186 420.87 540.558 421.37Q540.93 421.869 541.276 422.387Q541.622 422.905 541.941 423.44Q542.26 423.975 542.551 424.526Q542.843 425.076 543.105 425.641Q543.368 426.206 543.602 426.783Q543.835 427.36 544.039 427.949Q544.243 428.538 544.416 429.136Q544.59 429.726 544.734 430.325Q544.878 430.923 544.992 431.528Q545.106 432.133 545.189 432.743Q545.273 433.353 545.325 433.966Q545.378 434.579 545.4 435.195Q545.422 435.81 545.413 436.425Q545.404 437.041 545.364 437.655Q545.324 438.269 545.254 438.881Q545.183 439.492 545.082 440.099Q544.981 440.706 544.849 441.308Q544.718 441.909 544.556 442.503Q544.394 443.097 544.203 443.682Q544.012 444.267 543.792 444.842Q543.572 445.417 543.323 445.98Q543.074 446.543 542.798 447.093Q542.521 447.643 542.217 448.178C538.43 454.714 532.646 457.876 525.62 459.85C519.928 460.285 514.839 460.255 509.673 457.403Q509.13 457.097 508.604 456.765Q508.077 456.432 507.568 456.074Q507.059 455.716 506.568 455.332Q506.078 454.949 505.607 454.541Q505.136 454.134 504.686 453.704Q504.236 453.273 503.808 452.821Q503.38 452.368 502.975 451.895Q502.57 451.422 502.19 450.929Q501.809 450.436 501.454 449.925Q501.098 449.414 500.768 448.886Q500.439 448.357 500.136 447.813Q499.833 447.269 499.558 446.71Q499.283 446.152 499.036 445.58Q498.789 445.009 498.571 444.425Q498.353 443.842 498.164 443.249Q497.976 442.655 497.817 442.053Q497.67 441.455 497.552 440.851Q497.434 440.246 497.347 439.637Q497.259 439.027 497.202 438.414Q497.144 437.801 497.117 437.186Q497.09 436.571 497.093 435.955Q497.096 435.339 497.13 434.724Q497.164 434.109 497.227 433.497Q497.291 432.884 497.385 432.276Q497.479 431.667 497.604 431.064Q497.727 430.461 497.881 429.864Q498.035 429.268 498.218 428.68Q498.4 428.092 498.612 427.514Q498.824 426.935 499.064 426.368Q499.303 425.801 499.571 425.247Q499.839 424.692 500.133 424.151Q500.428 423.611 500.749 423.085C504.491 417.075 510.302 413.683 517.028 412.079Z"/>
	<path fill="#BE3FA9" d="M527.994 325.904C553.216 305.279 584.192 289.55 615.87 281.817C669.818 268.647 723.714 278.075 770.934 306.702C773.993 309.19 777.195 312.272 780.796 313.898C785.54 321.135 788.907 331.477 792.356 339.528C798.275 352.55 806.037 379.076 807.589 393.225C808.896 402.234 811.796 416.607 811.43 425.555L811.172 425.964C808.066 430.964 805.63 436.249 802.233 441.099Q801.011 442.842 799.711 444.526Q798.41 446.211 797.033 447.834Q795.657 449.457 794.207 451.015Q792.757 452.573 791.236 454.062Q789.716 455.552 788.129 456.97Q786.542 458.388 784.891 459.731Q783.24 461.074 781.529 462.34Q779.818 463.606 778.051 464.792Q776.284 465.977 774.463 467.08Q772.643 468.183 770.774 469.202Q768.906 470.22 766.992 471.151Q765.078 472.082 763.123 472.923Q761.168 473.765 759.177 474.516Q757.186 475.267 755.162 475.926Q753.138 476.584 751.086 477.149Q749.034 477.714 746.958 478.183C735.305 480.909 722.285 481.286 710.537 478.886L710.099 479.052C702.569 476.849 695.703 473.655 688.757 470.077L688.431 470.226C683.916 467.427 679.728 464.406 675.865 460.743C669.905 455.091 664.827 447.65 657.216 444.089C649.72 440.581 640.856 440.208 632.729 439.699C616.206 438.666 586.803 439.156 572.685 431.964C566.571 428.85 561.949 424.396 558.449 418.496C553.128 409.524 550.695 398.258 547.517 388.338C540.9 367.676 534.821 346.825 528.011 326.229L527.994 325.904Z"/>
	<path fill="#EB6DA3" d="M754.6 374.754C751.76 412.137 732.97 449.358 710.537 478.886L710.099 479.052C702.569 476.849 695.703 473.655 688.757 470.077C708.14 449.414 726.961 425.486 741.165 400.879C746.096 392.337 749.993 383.435 754.6 374.754Z"/>
	<path fill="#EB6DA3" d="M807.589 393.225C803.689 395.555 799.947 397.827 795.431 398.775C788.779 400.173 781.856 398.26 776.315 394.485C767.26 388.317 761.222 377.032 759.228 366.437C757.632 357.955 758.99 348.841 764.099 341.731C766.908 337.821 770.939 334.797 775.784 334.078C782.126 333.138 787.388 336.003 792.356 339.528C798.275 352.55 806.037 379.076 807.589 393.225Z"/>
	<path fill="#BE3FA9" d="M734.675 240.678C746.275 244.905 761.43 250.476 771.057 258.152C775.665 261.826 779.163 267.176 782.574 271.936C794.745 288.918 804.683 306.336 813.501 325.273C831.063 362.99 838.615 402.938 839.171 444.432C839.383 460.341 838.702 476.781 835.244 492.364C834.232 497.325 833.328 502.338 832.153 507.262C833.407 508.566 834.332 509.865 835.295 511.395C833.044 518.977 832.506 533.103 829.188 539.335C828.164 544.199 827.167 550.059 825.177 554.636C828.408 569.206 802.124 630.472 793.677 643.776Q792.734 645.278 791.755 646.756Q790.775 648.234 789.759 649.687Q788.743 651.14 787.691 652.567Q786.639 653.994 785.552 655.395Q784.464 656.795 783.342 658.168Q782.22 659.541 781.065 660.885Q779.909 662.23 778.72 663.545Q777.531 664.86 776.309 666.146Q775.088 667.431 773.834 668.685Q772.581 669.939 771.297 671.162Q770.013 672.385 768.699 673.575Q767.385 674.765 766.042 675.923Q764.698 677.08 763.326 678.203Q761.954 679.326 760.555 680.415Q759.155 681.503 757.729 682.557Q756.303 683.61 754.851 684.628Q753.399 685.645 751.922 686.626Q750.445 687.607 748.944 688.551Q747.443 689.495 745.919 690.401Q744.395 691.307 742.849 692.175Q741.303 693.043 739.735 693.872Q738.168 694.701 736.58 695.49Q734.993 696.28 733.386 697.029Q731.779 697.779 730.154 698.489Q728.529 699.198 726.887 699.867Q725.245 700.535 723.587 701.163Q721.929 701.79 720.255 702.376Q718.582 702.962 716.894 703.506Q715.207 704.05 713.506 704.552Q711.805 705.054 710.093 705.513Q708.38 705.972 706.657 706.388Q704.933 706.805 703.2 707.178C677.518 712.717 651.684 711.813 625.715 709.075C625.12 704.954 623.269 700.4 621.988 696.41C617.936 683.788 613.203 671.39 608.979 658.821C597.176 663.467 575.553 668.69 563.06 669.929C578.188 665.382 593.211 661.322 608.079 655.903C603.189 647.063 598.271 632.791 594.364 622.984L593.887 623.059C592.295 620.831 591.219 617.837 590.106 615.33L589.757 615.413C588.936 612.512 587.148 609.585 585.751 606.905C580.749 597.303 574.074 587.842 569.997 577.881C550.706 586.955 525.683 595.095 504.967 600.748C503.035 601.276 501.127 602.369 499.12 602.355C502.291 600.244 516.907 595.506 521.666 593.51C537.002 587.079 551.111 579.676 565.002 570.534C609.425 541.48 652.822 509.931 688.431 470.226L688.757 470.077C695.703 473.655 702.569 476.849 710.099 479.052L710.537 478.886C722.285 481.286 735.305 480.909 746.958 478.183Q749.034 477.714 751.086 477.149Q753.138 476.584 755.162 475.926Q757.186 475.267 759.177 474.516Q761.168 473.765 763.123 472.923Q765.078 472.082 766.992 471.151Q768.906 470.22 770.774 469.202Q772.643 468.183 774.464 467.08Q776.284 465.977 778.051 464.792Q779.818 463.606 781.529 462.34Q783.24 461.074 784.891 459.731Q786.542 458.388 788.129 456.97Q789.716 455.552 791.236 454.062Q792.757 452.573 794.207 451.015Q795.657 449.457 797.033 447.834Q798.41 446.211 799.711 444.526Q801.011 442.842 802.233 441.099C805.63 436.249 808.066 430.964 811.172 425.964L811.43 425.555C811.796 416.607 808.896 402.234 807.589 393.225C806.037 379.076 798.275 352.55 792.356 339.528C788.907 331.477 785.54 321.135 780.796 313.898C767.833 288.308 753.725 262.339 734.675 240.678Z"/>
	<path fill="#8B3594" d="M823.306 538.889C824.47 534.314 826.207 529.78 827.594 525.257C829.414 519.324 830.826 513.322 832.153 507.262C833.407 508.566 834.332 509.865 835.295 511.395C833.044 518.977 832.506 533.103 829.188 539.335L828.476 538.911C830.227 533.951 832.163 525.645 831.514 520.418L831.059 520.065C827.103 524.909 826.963 533.411 823.993 539.026L823.306 538.889Z"/>
	<path fill="#5F0F6C" d="M608.979 658.821Q621.49 655.255 633.637 650.597C639.314 648.381 645.082 645.609 650.959 644.031C652.992 643.485 654.681 643.256 656.764 643.531C658.273 644.355 658.959 645.367 659.648 646.89C661.492 650.968 662.302 655.921 663.466 660.248C665.859 669.145 668.604 678.293 672.566 686.622C675.174 692.104 678.746 697.529 684.809 699.51C694.952 702.824 719.855 688.744 729.022 684.072C752.07 672.325 775.717 657.747 790.603 636.07C796.502 627.481 801.054 617.83 805.294 608.331C813.13 590.776 819.249 572.898 825.177 554.636C828.408 569.206 802.124 630.472 793.677 643.776Q792.734 645.278 791.755 646.756Q790.775 648.234 789.759 649.687Q788.743 651.14 787.691 652.567Q786.639 653.994 785.552 655.395Q784.464 656.795 783.342 658.168Q782.22 659.541 781.065 660.885Q779.909 662.23 778.72 663.545Q777.531 664.86 776.309 666.146Q775.088 667.431 773.834 668.685Q772.581 669.939 771.297 671.162Q770.013 672.385 768.699 673.575Q767.385 674.765 766.042 675.923Q764.698 677.08 763.326 678.203Q761.954 679.326 760.555 680.415Q759.155 681.503 757.729 682.557Q756.303 683.61 754.851 684.628Q753.399 685.645 751.922 686.626Q750.445 687.607 748.944 688.551Q747.443 689.495 745.919 690.401Q744.395 691.307 742.849 692.175Q741.303 693.043 739.735 693.872Q738.168 694.701 736.58 695.49Q734.993 696.28 733.386 697.029Q731.779 697.779 730.154 698.489Q728.529 699.198 726.887 699.867Q725.245 700.535 723.587 701.163Q721.929 701.79 720.255 702.376Q718.582 702.962 716.894 703.506Q715.207 704.05 713.506 704.552Q711.805 705.054 710.093 705.513Q708.38 705.972 706.657 706.388Q704.933 706.805 703.2 707.178C677.518 712.717 651.684 711.813 625.715 709.075C625.12 704.954 623.269 700.4 621.988 696.41C617.936 683.788 613.203 671.39 608.979 658.821Z"/>
	<path fill="#FEFCFD" d="M734.675 240.678C746.275 244.905 761.43 250.476 771.057 258.152C775.665 261.826 779.163 267.176 782.574 271.936C794.745 288.918 804.683 306.336 813.501 325.273C831.063 362.99 838.615 402.938 839.171 444.432C839.383 460.341 838.702 476.781 835.244 492.364C834.232 497.325 833.328 502.338 832.153 507.262C830.826 513.322 829.414 519.324 827.594 525.257C826.207 529.78 824.47 534.314 823.306 538.889C820.303 544.838 818.458 551.558 815.872 557.731C794.593 608.518 751.035 668.871 698.573 690.33C742.394 655.407 775.194 611.497 794.593 558.827C800.658 542.358 805.72 524.716 808.443 507.378C810.767 496.392 811.444 484.546 812.19 473.345C813.352 469.728 812.713 463.824 812.722 459.921C813.251 448.563 812.43 436.875 811.43 425.555C811.796 416.607 808.896 402.234 807.589 393.225C806.037 379.076 798.275 352.55 792.356 339.528C788.907 331.477 785.54 321.135 780.796 313.898C767.833 288.308 753.725 262.339 734.675 240.678Z"/>
	<path fill="#5F0F6C" d="M811.43 425.555C812.43 436.875 813.251 448.563 812.722 459.921C812.713 463.824 813.352 469.728 812.19 473.345C811.444 484.546 810.767 496.392 808.443 507.378C803.005 510.942 797.839 517.14 793.142 521.707C781.692 532.84 770.398 544.193 758.752 555.117C726.008 585.83 681.823 618.953 642.074 640.098C631.014 645.981 619.592 650.993 608.079 655.903C603.189 647.063 598.271 632.791 594.364 622.984L593.887 623.059C592.295 620.831 591.219 617.837 590.106 615.33L589.757 615.413C588.936 612.512 587.148 609.585 585.751 606.905C580.749 597.303 574.074 587.842 569.997 577.881C550.706 586.955 525.683 595.095 504.967 600.748C503.035 601.276 501.127 602.369 499.12 602.355C502.291 600.244 516.907 595.506 521.666 593.51C537.002 587.079 551.111 579.676 565.002 570.534C609.425 541.48 652.822 509.931 688.431 470.226L688.757 470.077C695.703 473.655 702.569 476.849 710.099 479.052L710.537 478.886C722.285 481.286 735.305 480.909 746.958 478.183Q749.034 477.714 751.086 477.149Q753.138 476.584 755.162 475.926Q757.186 475.267 759.177 474.516Q761.168 473.765 763.123 472.923Q765.078 472.082 766.992 471.151Q768.906 470.22 770.774 469.202Q772.643 468.183 774.464 467.08Q776.284 465.977 778.051 464.792Q779.818 463.606 781.529 462.34Q783.24 461.074 784.891 459.731Q786.542 458.388 788.129 456.97Q789.716 455.552 791.236 454.062Q792.757 452.573 794.207 451.015Q795.657 449.457 797.033 447.834Q798.41 446.211 799.711 444.526Q801.011 442.842 802.233 441.099C805.63 436.249 808.066 430.964 811.172 425.964L811.43 425.555Z"/>
	<defs>
		<linearGradient id="gradient_1" gradientUnits="userSpaceOnUse" x1="716.05396" y1="557.46912" x2="689.44574" y2="527.65118">
			<stop offset="0" stop-color="#C120A1"/>
			<stop offset="1" stop-color="#DF3AB6"/>
		</linearGradient>
	</defs>
	<path fill="url(#gradient_1)" d="M812.722 459.921C812.713 463.824 813.352 469.728 812.19 473.345L811.72 472.255C808.995 473.215 793.265 489.317 789.765 492.576Q757.318 523.401 722.494 551.513C683.059 582.733 641.933 606.551 594.364 622.984L593.887 623.059C592.295 620.831 591.219 617.837 590.106 615.33C597.49 611.344 605.319 607.944 612.867 604.26Q631.316 595.212 649.407 585.468C681.253 568.142 713.186 548.868 741.605 526.313C755.304 515.441 767.61 503.609 780.224 491.56C791.166 481.108 802.148 470.752 812.722 459.921Z"/>
	<path fill="#BE3FA9" d="M688.431 470.226L688.757 470.077C695.703 473.655 702.569 476.849 710.099 479.052C705.758 484.474 701.46 489.859 696.587 494.822C664.119 527.881 612.196 558.952 569.997 577.881C550.706 586.955 525.683 595.095 504.967 600.748C503.035 601.276 501.127 602.369 499.12 602.355C502.291 600.244 516.907 595.506 521.666 593.51C537.002 587.079 551.111 579.676 565.002 570.534C609.425 541.48 652.822 509.931 688.431 470.226Z"/>
	<path fill="#5F0F6C" d="M594.364 622.984C641.933 606.551 683.059 582.733 722.494 551.513Q757.318 523.401 789.765 492.576C793.265 489.317 808.995 473.215 811.72 472.255L812.19 473.345C811.444 484.546 810.767 496.392 808.443 507.378C803.005 510.942 797.839 517.14 793.142 521.707C781.692 532.84 770.398 544.193 758.752 555.117C726.008 585.83 681.823 618.953 642.074 640.098C631.014 645.981 619.592 650.993 608.079 655.903C603.189 647.063 598.271 632.791 594.364 622.984Z"/>
	<path fill="#270332" d="M327.646 377.797C331.37 362.216 339.333 335.434 348.436 322.846C348.312 324.656 340.021 343.329 338.644 347.275Q335.857 355.072 333.839 363.102Q331.821 371.132 330.591 379.32C344.883 386.118 353.924 400.647 361.323 413.964C364.027 389.305 372.596 365.959 382.767 343.481C383.599 345.806 379.833 352.903 378.819 355.351C372.866 369.729 365.085 394.043 363.798 409.453C363.178 416.872 369.329 431.465 371.088 439.926C372.811 448.212 374.09 456.616 375.525 464.957C376.112 468.367 376.419 472.447 377.546 475.694Q378.929 487.306 379.63 498.979C381.633 496.031 378.988 491.68 380.005 488.358L380.727 488.849C380.676 489.911 380.533 490.965 380.969 491.965C381.256 492.626 381.259 492.432 382.034 492.707C382.724 491.971 383.013 491.59 383.279 490.583C383.473 489.848 383.627 489.085 383.807 488.344C385.651 488.458 386.51 488.422 388.051 487.339C388.938 486.715 389.597 486.28 390.656 485.961C393.693 487.096 391.525 491.453 393.468 494.596C394.277 504.552 393.851 514.77 395.067 524.652Q395.588 546.832 395.582 569.018C395.613 573.943 396.085 579.07 395.936 583.957C399.673 608.967 415.915 621.603 435.14 635.851C505.83 688.244 606.848 733.416 696.68 719.934Q700.404 719.346 704.103 718.62Q707.802 717.893 711.472 717.029Q715.141 716.164 718.776 715.163Q722.411 714.162 726.005 713.026Q729.6 711.889 733.149 710.619Q736.699 709.349 740.198 707.947Q743.698 706.545 747.143 705.013Q750.587 703.481 753.972 701.821Q757.357 700.162 760.678 698.376Q763.998 696.591 767.25 694.683Q770.501 692.775 773.679 690.746Q776.856 688.718 779.956 686.572Q783.056 684.426 786.073 682.165Q789.09 679.905 792.02 677.533Q794.951 675.161 797.79 672.682Q800.63 670.202 803.375 667.618C809.421 662.009 814.13 653.065 818.201 645.934C819.588 643.505 820.944 640.281 822.923 638.308C824.099 636.789 825.009 635.836 826.665 634.848C831.714 619.9 837.313 605.031 841.63 589.852C843.903 581.861 846.228 573.757 848.335 565.729C850.146 558.829 851.399 551.257 854.496 544.825L854.898 544.827L854.695 548.762Q852.638 565.317 849.239 581.649C848.521 585.012 844.878 596.636 845.512 599.118L845.492 599.483C843.465 601.446 839.486 619.438 838.109 623.677Q833.382 639.36 827.296 654.568Q821.21 669.775 813.813 684.39C808.319 694.99 802.07 705.117 796.09 715.439Q789.117 725.549 782.311 735.772C766.724 757.553 746.601 778.095 727.842 797.207C722.425 802.726 716.461 809.826 710.038 814.084L709.82 814.49Q708.845 815.525 707.811 816.502Q706.777 817.478 705.688 818.392Q704.598 819.306 703.457 820.155Q702.316 821.004 701.127 821.784Q699.939 822.565 698.706 823.274Q697.474 823.984 696.202 824.62Q694.93 825.256 693.623 825.817Q692.316 826.378 690.979 826.861C668.876 835.011 642.482 835.467 619.406 831.712C585.426 826.184 549.195 810.557 517.264 797.414Q453.119 771.371 390.584 741.669Q347.911 722.003 305.781 701.199C290.032 693.389 273.707 685.977 258.985 676.329C252.887 672.333 247.213 667.773 242.273 662.397C236.053 655.626 230.157 647.261 227.421 638.386C226.591 635.693 226.55 632.675 225.539 630.081C225.45 629.85 225.353 629.622 225.26 629.393L225.618 628.235C225.047 626.084 215.876 619.084 213.667 616.839C211.16 614.003 208.731 611.157 206.437 608.145C202.192 603.429 196.591 597.998 194.118 592.111C182.214 579.275 175.429 563.479 170.732 546.821C162.594 517.959 161.26 486.035 167.791 456.717C169.033 451.142 170.479 444.337 173.288 439.332C175.096 438.17 179.856 428.51 181.326 426.199C184.68 421.329 188.306 416.878 192.651 412.865C197.271 408.734 202.285 405.862 208.043 403.629C216.207 398.174 226.592 396.919 236.108 396.321C237.883 396.21 238.871 396.073 240.057 394.729C233.813 392.978 227.527 392.789 221.109 393.393C221.219 393.119 221.324 392.844 221.439 392.572C222.499 390.049 224.824 385.732 227.43 384.688C233.051 382.668 238.051 380.484 243.955 379.127C249.026 376.045 256.872 371.763 262.809 371.812C263.16 370.994 263.298 370.099 263.491 369.232L265.67 368.616L265.997 367.995C267.218 367.355 268.375 366.662 269.538 365.922C275.253 364.519 280.821 363.3 286.736 363.107C301.615 362.621 316.699 367.518 327.646 377.797Z"/>
	<defs>
		<linearGradient id="gradient_2" gradientUnits="userSpaceOnUse" x1="749.3844" y1="819.70612" x2="779.4209" y2="629.86755">
			<stop offset="0" stop-color="#BC78CB"/>
			<stop offset="1" stop-color="#E4B0EF"/>
		</linearGradient>
	</defs>
	<path fill="url(#gradient_2)" d="M826.665 634.848C831.714 619.9 837.313 605.031 841.63 589.852C843.903 581.861 846.228 573.757 848.335 565.729C850.146 558.829 851.399 551.257 854.496 544.825L854.898 544.827L854.695 548.762Q852.638 565.317 849.239 581.649C848.521 585.012 844.878 596.636 845.512 599.118L845.492 599.483C843.465 601.446 839.486 619.438 838.109 623.677Q833.382 639.36 827.296 654.568Q821.21 669.775 813.813 684.39C808.319 694.99 802.07 705.117 796.09 715.439Q789.117 725.549 782.311 735.772C766.724 757.553 746.601 778.095 727.842 797.207C722.425 802.726 716.461 809.826 710.038 814.084L709.461 813.881L706.455 814.092C706.185 810.008 707.258 803.835 708.38 799.85C711.637 794.841 717.158 756.903 718.902 747.924C719.537 746.163 720.239 742.377 719.855 740.543C719.317 737.971 717.683 736.665 715.532 735.384L715.014 735.083L714.59 734.213C727.209 731.298 738.947 726.63 750.253 720.35C777.57 705.176 798.542 682.99 813.985 655.995C817.129 650.5 821.172 644.408 822.923 638.308C824.099 636.789 825.009 635.836 826.665 634.848Z"/>
	<path fill="#FBF1D6" d="M826.665 634.848C831.714 619.9 837.313 605.031 841.63 589.852C843.903 581.861 846.228 573.757 848.335 565.729C850.146 558.829 851.399 551.257 854.496 544.825L854.898 544.827L854.695 548.762Q852.638 565.317 849.239 581.649C848.521 585.012 844.878 596.636 845.512 599.118L845.492 599.483C843.465 601.446 839.486 619.438 838.109 623.677Q833.382 639.36 827.296 654.568Q821.21 669.775 813.813 684.39C808.319 694.99 802.07 705.117 796.09 715.439Q789.117 725.549 782.311 735.772C766.724 757.553 746.601 778.095 727.842 797.207C722.425 802.726 716.461 809.826 710.038 814.084L709.461 813.881C714.541 800.333 722.897 789.537 731.215 777.865C746.992 755.728 764.713 734.78 781.3 713.22C786.44 706.539 792.011 700.126 796.92 693.278C808.244 677.481 821.385 653.41 826.665 634.848Z"/>
	<path fill="#270332" d="M656.21 738.072Q663.533 738.403 670.863 738.326Q678.193 738.25 685.507 737.766Q692.822 737.283 700.098 736.394Q707.374 735.505 714.59 734.213L715.014 735.083L715.532 735.384C717.683 736.665 719.317 737.971 719.855 740.543C720.239 742.377 719.537 746.163 718.902 747.924C717.158 756.903 711.637 794.841 708.38 799.85C707.258 803.835 706.185 810.008 706.455 814.092L709.461 813.881L710.038 814.084L709.82 814.49C705.044 814.614 700.153 815.375 695.386 815.812L666.342 818.414C661.137 818.868 655.518 819.673 650.299 819.35C646.435 819.111 642.519 818.078 639.943 814.996C636.218 810.54 636.248 804.615 636.583 799.158C638.808 792.446 639.196 771.617 639.908 763.464C640.458 757.16 641.934 744.318 648.561 741.43C650.718 740.491 653.93 740.252 655.652 738.636C655.845 738.455 656.024 738.26 656.21 738.072Z"/>
	<path fill="#BE3FA9" d="M656.21 738.072Q663.533 738.403 670.863 738.326Q678.193 738.25 685.507 737.766Q692.822 737.283 700.098 736.394Q707.374 735.505 714.59 734.213L715.014 735.083L715.532 735.384C717.683 736.665 719.317 737.971 719.855 740.543C720.239 742.377 719.537 746.163 718.902 747.924C718.596 746.7 718.494 746.082 717.322 745.354C715.738 744.368 713.302 744.477 711.513 744.541C707.506 744.686 657.366 749.422 656.074 749.917C654.789 750.409 654.238 751.908 653.812 753.126C651.725 759.098 649.786 791.405 649.824 798.978C649.836 801.368 650.057 803.609 650.746 805.909C653.287 807.917 688.591 803.098 693.864 802.48C698.581 801.928 703.967 801.639 708.38 799.85C707.258 803.835 706.185 810.008 706.455 814.092L709.461 813.881L710.038 814.084L709.82 814.49C705.044 814.614 700.153 815.375 695.386 815.812L666.342 818.414C661.137 818.868 655.518 819.673 650.299 819.35C646.435 819.111 642.519 818.078 639.943 814.996C636.218 810.54 636.248 804.615 636.583 799.158C638.808 792.446 639.196 771.617 639.908 763.464C640.458 757.16 641.934 744.318 648.561 741.43C650.718 740.491 653.93 740.252 655.652 738.636C655.845 738.455 656.024 738.26 656.21 738.072Z"/>
	<path fill="#5F0F6C" d="M708.268 749.292C710.168 749.11 711.951 748.854 713.837 749.256C714.109 753.391 712.335 759.014 711.567 763.158C709.541 774.083 707.15 785.082 705.739 796.096C693.163 799.637 673.482 799.998 659.88 801.55C658.142 801.794 656.6 802.201 654.944 801.426C654.131 797.253 657.908 761.142 658.599 754.034C665.001 753.887 671.636 752.785 678.02 752.114C688.1 751.055 698.175 750.194 708.268 749.292Z"/>
	<path fill="#03000E" d="M687.956 763.64C690.543 763.313 693.018 763.636 695.084 765.363C697.345 767.253 698.56 770.446 698.717 773.335C698.922 777.094 697.306 780.875 694.694 783.546C692.258 786.036 689.058 787.234 685.597 787.133C682.156 787.031 678.914 785.994 676.565 783.405C674.868 781.534 673.649 779.252 673.928 776.664C674.044 775.591 674.242 774.943 675.008 774.184C674.973 775.495 674.975 776.758 675.305 778.038C675.964 780.598 677.479 782.963 679.849 784.231C682.509 785.654 685.966 785.806 688.816 784.896Q689.414 784.702 689.989 784.449Q690.564 784.197 691.111 783.887Q691.658 783.578 692.172 783.216Q692.685 782.854 693.159 782.442Q693.634 782.03 694.064 781.572Q694.495 781.115 694.878 780.616Q695.26 780.118 695.591 779.584Q695.922 779.05 696.198 778.485C697.359 776.076 697.672 773.438 696.614 770.929C695.041 767.2 691.551 765.027 687.956 763.64Z"/>
	<path fill="#C990D7" d="M687.956 763.64C691.551 765.027 695.041 767.2 696.614 770.929C697.672 773.438 697.359 776.076 696.198 778.485Q695.922 779.05 695.591 779.584Q695.261 780.118 694.878 780.616Q694.495 781.115 694.064 781.572Q693.634 782.03 693.159 782.442Q692.685 782.854 692.172 783.216Q691.658 783.578 691.111 783.887Q690.564 784.197 689.989 784.449Q689.414 784.702 688.816 784.896C685.966 785.806 682.509 785.654 679.849 784.231C677.479 782.963 675.964 780.598 675.305 778.038C674.975 776.758 674.973 775.495 675.008 774.184C675.542 772.804 676.076 771.394 676.876 770.142C679.677 765.757 683.187 764.76 687.956 763.64Z"/>
	<defs>
		<linearGradient id="gradient_3" gradientUnits="userSpaceOnUse" x1="579.70941" y1="472.6481" x2="597.59601" y2="737.37183">
			<stop offset="0" stop-color="#621A6D"/>
			<stop offset="1" stop-color="#9D44B4"/>
		</linearGradient>
	</defs>
	<path fill="url(#gradient_3)" d="M379.63 498.979C381.633 496.031 378.988 491.68 380.005 488.358L380.727 488.849C380.676 489.911 380.533 490.965 380.969 491.965C381.256 492.626 381.259 492.432 382.034 492.707C382.724 491.971 383.013 491.59 383.279 490.583C383.473 489.848 383.627 489.085 383.807 488.344C385.651 488.458 386.51 488.422 388.051 487.339C388.938 486.715 389.597 486.28 390.656 485.961C393.693 487.096 391.525 491.453 393.468 494.596C394.277 504.552 393.851 514.77 395.067 524.652Q395.588 546.832 395.582 569.018C395.613 573.943 396.085 579.07 395.936 583.957C399.673 608.967 415.915 621.603 435.14 635.851C505.83 688.244 606.848 733.416 696.68 719.934Q700.404 719.346 704.103 718.62Q707.802 717.893 711.472 717.029Q715.141 716.164 718.776 715.163Q722.411 714.162 726.005 713.026Q729.6 711.889 733.149 710.619Q736.699 709.349 740.198 707.947Q743.698 706.545 747.143 705.013Q750.587 703.481 753.972 701.821Q757.357 700.162 760.678 698.376Q763.998 696.591 767.25 694.683Q770.501 692.775 773.679 690.746Q776.856 688.718 779.956 686.572Q783.056 684.426 786.073 682.165Q789.09 679.905 792.02 677.533Q794.951 675.161 797.79 672.682Q800.63 670.202 803.375 667.618C803.41 670.554 800.55 673.063 798.717 675.173C778.291 698.685 750.625 719.143 720.266 727.33C708.673 730.456 696.466 731.745 684.512 732.566C600.961 738.31 491.544 690.151 424.659 642.563C422.722 641.184 421.852 638.756 420.053 637.249C415.4 633.353 410.234 630.069 405.64 626.031C380.848 604.244 382.468 570.645 381.626 540.413Q380.997 519.678 379.63 498.979Z"/>
	<path fill="#791C85" d="M265.67 368.616C284.821 367.365 300.118 371.15 314.753 384.089C345.807 411.545 358.717 462.726 361.172 502.534C362.469 509.304 362.028 517.195 361.919 524.082C361.454 553.524 357.36 587.104 340.564 612.032C333.938 621.866 322.433 633.697 310.251 635.95C304.377 637.036 298.851 635.415 293.063 635.851C286.072 636.377 279.448 639.02 272.318 639.076C278.975 634.832 286.142 632.442 292.194 626.998C320.157 601.842 328.246 561.153 330.038 525.176C321.088 529.863 311.963 533.742 301.877 535.123C304.523 512.068 303.197 491.485 296.835 469.169C293.338 457.351 288.935 445.972 282.976 435.163C273.484 417.948 259.708 400.477 240.057 394.729C233.813 392.978 227.527 392.789 221.109 393.393C221.219 393.119 221.324 392.844 221.439 392.572C222.499 390.049 224.824 385.732 227.43 384.688C233.051 382.668 238.051 380.484 243.955 379.127C249.026 376.045 256.872 371.763 262.809 371.812C263.16 370.994 263.298 370.099 263.491 369.232L265.67 368.616Z"/>
	<defs>
		<linearGradient id="gradient_4" gradientUnits="userSpaceOnUse" x1="326.00345" y1="563.90466" x2="338.29944" y2="565.29987">
			<stop offset="0" stop-color="#100520"/>
			<stop offset="1" stop-color="#24052F"/>
		</linearGradient>
	</defs>
	<path fill="url(#gradient_4)" d="M342.697 518.664C344.829 543.434 336.507 581.43 325.286 603.697Q321.85 610.483 317.628 616.809C315.734 619.682 312.881 622.775 311.616 625.947C308.474 628.863 304.685 630.793 300.92 632.768Q302.114 631.675 303.296 630.57C331.502 604.174 339.337 556.652 340.603 519.68L341.123 519.604L342.101 519.941L342.697 518.664Z"/>
	<path fill="#5F0F6C" d="M341.673 477.627C344.663 486.041 347.316 511.729 347.593 521.437C350.568 525.202 347.594 548.094 346.922 554.008C344.476 575.508 333.784 609.738 316.344 623.313C314.866 624.463 313.346 625.256 311.616 625.947C312.881 622.775 315.734 619.682 317.628 616.809Q321.85 610.483 325.286 603.697C336.507 581.43 344.829 543.434 342.697 518.664L342.101 519.941L341.123 519.604L340.603 519.68C340.69 512.787 340.153 505.81 339.925 498.913L339.561 498.808C339.389 493.3 338.477 487.796 337.746 482.339C338.189 481.65 338.889 481.051 339.458 480.458L339.667 480.05C341.867 484.025 340.494 490.08 342.612 493.933L343.141 493.489C343.752 488.964 341.923 483.58 341.175 479.078C341.168 479.036 341.173 478.992 341.168 478.95L341.077 478.171L341.673 477.627Z"/>
	<path fill="#270332" d="M337.746 482.339C338.189 481.65 338.889 481.051 339.458 480.458C340.13 484.817 341.655 490.252 341.425 494.597C341.986 499.48 342.632 504.908 342.436 509.819L342.697 518.664L342.101 519.941L341.123 519.604L340.603 519.68C340.69 512.787 340.153 505.81 339.925 498.913L339.561 498.808C339.389 493.3 338.477 487.796 337.746 482.339Z"/>
	<path fill="#270332" d="M341.123 519.604C341.095 517.165 340.411 511.441 341.567 509.501L342.436 509.819L342.697 518.664L342.101 519.941L341.123 519.604Z"/>
	<path fill="#BE3FA9" d="M265.67 368.616C284.821 367.365 300.118 371.15 314.753 384.089C345.807 411.545 358.717 462.726 361.172 502.534C358.795 507.977 353.785 518.595 348.037 521.332C347.9 521.397 347.741 521.402 347.593 521.437C347.316 511.729 344.663 486.041 341.673 477.627L341.077 478.171L341.168 478.95C341.173 478.992 341.168 479.036 341.175 479.078C341.923 483.58 343.752 488.964 343.141 493.489L342.612 493.933C340.494 490.08 341.867 484.025 339.667 480.05L339.458 480.458C338.889 481.051 338.189 481.65 337.746 482.339C338.477 487.796 339.389 493.3 339.561 498.808L339.627 504.906C339.652 513.372 335.775 519.138 330.026 524.906C329.598 484.049 322.423 447.371 298.09 413.513C288.611 400.322 274.707 386.077 258.626 381.46C253.759 380.062 248.901 379.932 243.955 379.127C249.026 376.045 256.872 371.763 262.809 371.812C263.16 370.994 263.298 370.099 263.491 369.232L265.67 368.616Z"/>
	<path fill="#3F0443" d="M265.193 372.498C283.808 374.878 297.577 383.636 309.017 398.437C324.818 418.878 338.933 451.841 341.673 477.627L341.077 478.171L341.168 478.95C341.173 478.992 341.168 479.036 341.175 479.078C341.923 483.58 343.752 488.964 343.141 493.489L342.612 493.933C340.494 490.08 341.867 484.025 339.667 480.05L339.458 480.458C338.889 481.051 338.189 481.65 337.746 482.339C336.28 476.015 335.428 469.547 333.941 463.216C330.003 446.453 323.35 429.186 314.721 414.279C304.892 397.302 288.158 378.934 268.471 373.769C267.521 373.519 266.626 373.337 265.766 372.844C265.573 372.733 265.384 372.613 265.193 372.498Z"/>
	<path fill="#8B3594" d="M320.903 665.124C337.532 660.303 348.484 647.666 356.6 632.832C366.837 614.121 375.655 584.813 377.312 563.518C378.633 566.252 378.096 572.091 378.34 575.221C379.31 587.67 381.309 600.572 387.298 611.673C397.106 629.852 415.559 642.089 432.263 653.359Q439.365 658.137 446.61 662.693Q453.856 667.249 461.24 671.579Q468.623 675.909 476.137 680.009Q483.65 684.108 491.287 687.974Q498.924 691.839 506.677 695.466Q514.429 699.094 522.29 702.479Q530.151 705.865 538.114 709.006Q546.076 712.148 554.131 715.041C587.612 726.729 620.896 734.686 656.21 738.072C656.024 738.26 655.845 738.455 655.652 738.636C653.93 740.252 650.718 740.491 648.561 741.43C641.934 744.318 640.458 757.16 639.908 763.464C639.196 771.617 638.808 792.446 636.583 799.158C626.94 798.767 616.754 796.113 607.429 793.685C574.188 785.031 542.528 771.946 510.916 758.679C463.133 738.625 415.359 717.243 369.462 693.148Q344.678 680.011 320.903 665.124Z"/>
	<path fill="#5F0F6C" d="M301.877 535.123C311.963 533.742 321.088 529.863 330.038 525.176C328.246 561.153 320.157 601.842 292.194 626.998C286.142 632.442 278.975 634.832 272.318 639.076C268.031 638.96 263.813 638.724 259.548 638.265C273.087 652.584 292.342 665.329 312.726 665.791C315.403 665.851 318.273 665.641 320.903 665.124Q344.678 680.011 369.462 693.148C415.359 717.243 463.133 738.625 510.916 758.679C542.528 771.946 574.188 785.031 607.429 793.685C616.754 796.113 626.94 798.767 636.583 799.158C636.248 804.615 636.218 810.54 639.943 814.996C642.519 818.078 646.435 819.111 650.299 819.35C655.518 819.673 661.137 818.868 666.342 818.414L695.386 815.812C700.153 815.375 705.044 814.614 709.82 814.49Q708.845 815.525 707.811 816.502Q706.777 817.478 705.688 818.392Q704.598 819.306 703.457 820.155Q702.316 821.004 701.127 821.784Q699.939 822.565 698.706 823.274Q697.474 823.984 696.202 824.62Q694.93 825.256 693.623 825.817Q692.316 826.378 690.979 826.861C668.876 835.011 642.482 835.467 619.406 831.712C585.426 826.184 549.195 810.557 517.264 797.414Q453.119 771.371 390.584 741.669Q347.911 722.003 305.781 701.199C290.032 693.389 273.707 685.977 258.985 676.329C252.887 672.333 247.213 667.773 242.273 662.397C236.053 655.626 230.157 647.261 227.421 638.386C226.591 635.693 226.55 632.675 225.539 630.081C225.45 629.85 225.353 629.622 225.26 629.393L225.618 628.235C225.047 626.084 215.876 619.084 213.667 616.839C211.16 614.003 208.731 611.157 206.437 608.145C202.192 603.429 196.591 597.998 194.118 592.111C196.914 593.501 199.663 595.898 202.29 597.677C210.862 603.48 219.778 607.932 230.111 609.417C244.615 611.501 258.483 607.645 270.096 598.777C289.873 583.676 298.392 559.171 301.62 535.319L301.877 535.123Z"/>
	<path fill="#791C85" d="M240.057 394.729C259.708 400.477 273.484 417.948 282.976 435.163C288.935 445.972 293.338 457.351 296.835 469.169C303.197 491.485 304.523 512.068 301.877 535.123L301.62 535.319C298.392 559.171 289.873 583.676 270.096 598.777C258.483 607.645 244.615 611.501 230.111 609.417C219.778 607.932 210.862 603.48 202.29 597.677C199.663 595.898 196.914 593.501 194.118 592.111C182.214 579.275 175.429 563.479 170.732 546.821C162.594 517.959 161.26 486.035 167.791 456.717C169.033 451.142 170.479 444.337 173.288 439.332C175.096 438.17 179.856 428.51 181.326 426.199C184.68 421.329 188.306 416.878 192.651 412.865C197.271 408.734 202.285 405.862 208.043 403.629C216.207 398.174 226.592 396.919 236.108 396.321C237.883 396.21 238.871 396.073 240.057 394.729Z"/>
	<path fill="#3F0443" d="M193.321 445.551C196.976 445.654 200.169 446.703 203.236 448.71C214.842 456.3 220.915 475.455 223.78 488.202C228.74 510.266 230.156 548.294 217.834 567.576C214.726 572.44 211.322 574.919 205.778 576.172C203.946 575.675 202.071 575.08 200.379 574.213C187.434 567.584 181.131 550.784 177.238 537.772C170.197 514.238 167.081 479.865 179.395 457.595C182.577 451.84 186.882 447.405 193.321 445.551Z"/>
	<path fill="#BE3FA9" d="M240.057 394.729C259.708 400.477 273.484 417.948 282.976 435.163C288.935 445.972 293.338 457.351 296.835 469.169C303.197 491.485 304.523 512.068 301.877 535.123L301.62 535.319C288.608 537.001 274.284 538.076 261.821 533.197C254.859 530.472 248.458 525.892 244.494 519.465C237.911 508.791 236.774 493.73 234.073 481.576C231.395 469.525 228.302 457.437 223.31 446.111C215.965 429.442 208.661 419.464 188.924 425.316C186.356 426.078 183.928 427.211 181.326 426.199C184.68 421.329 188.306 416.878 192.651 412.865C197.271 408.734 202.285 405.862 208.043 403.629C216.207 398.174 226.592 396.919 236.108 396.321C237.883 396.21 238.871 396.073 240.057 394.729Z"/>
	<path fill="#CEA3D3" d="M240.057 394.729C259.708 400.477 273.484 417.948 282.976 435.163C288.935 445.972 293.338 457.351 296.835 469.169C295.466 472.147 294.967 475.773 292.795 478.324C291.456 479.897 289.656 480.901 287.573 480.985C282.598 481.186 277.671 476.928 274.934 473.161C271.212 468.039 269.612 460.795 267.363 454.905C262.136 441.216 252.649 427.329 242.025 417.263C231.823 407.599 222.114 403.229 208.043 403.629C216.207 398.174 226.592 396.919 236.108 396.321C237.883 396.21 238.871 396.073 240.057 394.729Z"/>
	<defs>
		<linearGradient id="gradient_5" gradientUnits="userSpaceOnUse" x1="442.67776" y1="468.70129" x2="976.37988" y2="-48.612854">
			<stop offset="0" stop-color="#41136E"/>
			<stop offset="1" stop-color="#7D278D"/>
		</linearGradient>
	</defs>
	<path fill="url(#gradient_5)" d="M0 0L1024 0L1024 805.455C1020.38 800.901 1015.35 796.722 1011.18 792.602L981.107 763.162L893.945 677.308L857.841 641.866C852.305 636.36 846.759 629.436 840.689 624.637C839.867 623.986 839.119 623.835 838.109 623.677C839.486 619.438 843.465 601.446 845.492 599.483L845.512 599.118C844.878 596.636 848.521 585.012 849.239 581.649Q852.638 565.317 854.695 548.762C863.602 547.79 872.464 546.335 881.323 545.002C884.416 528.836 885.539 513.111 885.965 496.671L887.504 495.146C887.481 486.934 885.705 477.736 882.667 470.098C878.189 458.838 870.537 451.745 859.557 446.984C859.904 445.182 870.713 426.64 872.45 423.241C882.961 402.673 893.225 377.383 896.487 354.372C897.39 348.005 897.033 341.747 897.548 335.407L897.62 334.607C898.35 337.332 898.04 340.948 898.117 343.805C901.285 332.179 899.783 312.403 896.616 301.014C886.057 263.046 850.535 232.133 817.16 213.32C807.546 207.9 797.017 204.165 787.542 198.694L786.99 198.368C785.743 198.746 784.967 199.004 783.646 198.823C783.223 199.69 782.765 200.466 782.228 201.267C781.219 201.626 780.369 201.653 779.321 201.389C776.7 200.73 774.227 199.205 771.581 198.43C762.406 195.742 752.996 193.502 743.636 191.568C717.404 186.147 690.028 184.956 663.318 185.969C628.711 186.594 575.32 198.818 544.382 214.155C541.33 217.051 530.698 221.411 526.626 222.782C497.172 237.964 469.822 255.127 444.062 276.008C439.752 279.501 433.657 283.633 430.419 288.154C426.566 289.525 414.734 300.96 412.589 304.429L413.01 304.206C414.281 303.52 415.246 302.85 416.311 301.878C416.316 302.187 416.317 302.497 416.328 302.806C416.371 303.975 416.249 303.533 416.657 304.381C413.157 308.161 409.016 311.653 404.993 314.861Q400.279 319.2 395.835 323.815C390.641 329.917 385.418 335.757 382.767 343.481C372.596 365.959 364.027 389.305 361.323 413.964C353.924 400.647 344.883 386.118 330.591 379.32Q331.821 371.132 333.839 363.102Q335.857 355.072 338.644 347.275C340.021 343.329 348.312 324.656 348.436 322.846C339.333 335.434 331.37 362.216 327.646 377.797C316.699 367.518 301.615 362.621 286.736 363.107C280.821 363.3 275.253 364.519 269.538 365.922C268.375 366.662 267.218 367.355 265.997 367.995L265.67 368.616L263.491 369.232C263.298 370.099 263.16 370.994 262.809 371.812C256.872 371.763 249.026 376.045 243.955 379.127C238.051 380.484 233.051 382.668 227.43 384.688C224.824 385.732 222.499 390.049 221.439 392.572C221.324 392.844 221.219 393.119 221.109 393.393C227.527 392.789 233.813 392.978 240.057 394.729C238.871 396.073 237.883 396.21 236.108 396.321C226.592 396.919 216.207 398.174 208.043 403.629C202.285 405.862 197.271 408.734 192.651 412.865C191.534 411.368 191.386 410.598 191.563 408.761C191.578 408.603 191.598 408.446 191.616 408.288L190.824 407.352C189.389 401.113 191.38 391.726 192.111 385.387Q192.655 380.867 193.321 376.364Q193.987 371.86 194.774 367.377Q195.562 362.893 196.471 358.432Q197.38 353.972 198.409 349.537Q199.439 345.103 200.588 340.698Q201.737 336.293 203.005 331.921Q204.273 327.549 205.659 323.212Q207.045 318.876 208.548 314.579Q210.051 310.282 211.669 306.027Q213.288 301.772 215.022 297.563Q216.755 293.354 218.602 289.193Q220.449 285.032 222.407 280.922Q224.366 276.813 226.436 272.758Q228.505 268.703 230.684 264.706Q232.862 260.709 235.148 256.772Q237.434 252.835 239.826 248.962C233.07 245.171 224.85 234.991 219.244 229.376L180.315 190.406L84.7883 95.5559C56.7199 67.6744 28.798 39.7198 0 12.5848L0 0Z"/>
	<path fill="#FEFCFD" d="M885.965 496.671L887.504 495.146C887.596 503.205 887.693 511.221 887.06 519.264C885.404 540.33 879.318 573.088 864.445 588.306C859.881 592.976 852.031 598.503 845.492 599.483L845.512 599.118C848.435 597.856 851.232 596.475 853.948 594.807C871.733 583.886 876.664 564 881.323 545.002C884.416 528.836 885.539 513.111 885.965 496.671Z"/>
	<path fill="#5F0F6C" d="M854.695 548.762C863.602 547.79 872.464 546.335 881.323 545.002C876.664 564 871.733 583.886 853.948 594.807C851.232 596.475 848.435 597.856 845.512 599.118C844.878 596.636 848.521 585.012 849.239 581.649Q852.638 565.317 854.695 548.762Z"/>
	<path fill="#FBF1D6" d="M239.826 248.962C255.505 224.624 272.578 202.161 293.953 182.47Q305.267 171.9 317.423 162.311Q329.58 152.723 342.494 144.182C399.498 107.124 469.829 86.3687 537.908 89.2802C628.117 93.1381 725.179 131.12 786.99 198.368C785.743 198.746 784.967 199.004 783.646 198.823C783.223 199.69 782.765 200.466 782.228 201.267C781.219 201.626 780.369 201.653 779.321 201.389C776.7 200.73 774.227 199.205 771.581 198.43C762.406 195.742 752.996 193.502 743.636 191.568C717.404 186.147 690.028 184.956 663.318 185.969C628.711 186.594 575.32 198.818 544.382 214.155C541.33 217.051 530.698 221.411 526.626 222.782C497.172 237.964 469.822 255.127 444.062 276.008C439.752 279.501 433.657 283.633 430.419 288.154C426.566 289.525 414.734 300.96 412.589 304.429L413.01 304.206C414.281 303.52 415.246 302.85 416.311 301.878C416.316 302.187 416.317 302.497 416.328 302.806C416.371 303.975 416.249 303.533 416.657 304.381C413.157 308.161 409.016 311.653 404.993 314.861Q400.279 319.2 395.835 323.815C390.641 329.917 385.418 335.757 382.767 343.481C372.596 365.959 364.027 389.305 361.323 413.964C353.924 400.647 344.883 386.118 330.591 379.32Q331.821 371.132 333.839 363.102Q335.857 355.072 338.644 347.275C340.021 343.329 348.312 324.656 348.436 322.846C339.333 335.434 331.37 362.216 327.646 377.797C316.699 367.518 301.615 362.621 286.736 363.107C280.821 363.3 275.253 364.519 269.538 365.922C268.375 366.662 267.218 367.355 265.997 367.995L265.67 368.616L263.491 369.232C263.298 370.099 263.16 370.994 262.809 371.812C256.872 371.763 249.026 376.045 243.955 379.127C238.051 380.484 233.051 382.668 227.43 384.688C224.824 385.732 222.499 390.049 221.439 392.572C221.324 392.844 221.219 393.119 221.109 393.393C227.527 392.789 233.813 392.978 240.057 394.729C238.871 396.073 237.883 396.21 236.108 396.321C226.592 396.919 216.207 398.174 208.043 403.629C202.285 405.862 197.271 408.734 192.651 412.865C191.534 411.368 191.386 410.598 191.563 408.761C191.578 408.603 191.598 408.446 191.616 408.288L190.824 407.352C189.389 401.113 191.38 391.726 192.111 385.387Q192.655 380.867 193.321 376.364Q193.987 371.86 194.774 367.377Q195.562 362.893 196.471 358.432Q197.38 353.972 198.409 349.537Q199.439 345.103 200.588 340.698Q201.737 336.293 203.005 331.921Q204.273 327.549 205.659 323.212Q207.045 318.876 208.548 314.579Q210.051 310.282 211.669 306.027Q213.288 301.772 215.022 297.563Q216.755 293.354 218.602 289.193Q220.449 285.032 222.407 280.922Q224.366 276.813 226.436 272.758Q228.505 268.703 230.684 264.706Q232.862 260.709 235.148 256.772Q237.434 252.835 239.826 248.962Z"/>
	<path fill="#CEA3D3" d="M356.853 146.474C366.131 140.337 376.616 135.244 386.641 130.445C449.214 100.488 520.701 92.0349 589.059 102.563C603.846 104.84 618.474 108.787 632.758 113.176C635.073 113.887 637.949 115.241 640.348 114.967L641.682 117.094C630.665 115.088 619.605 112.852 608.477 111.573C577.676 108.034 546.119 110.626 515.922 117.304C494.546 122.032 474.909 129.945 454.055 136.134C423.528 145.192 388.55 147.535 356.853 146.474Z"/>
	<defs>
		<linearGradient id="gradient_6" gradientUnits="userSpaceOnUse" x1="699.40948" y1="127.39162" x2="646.59052" y2="187.10838">
			<stop offset="0" stop-color="#F9E7E7"/>
			<stop offset="1" stop-color="#FFF8EC"/>
		</linearGradient>
	</defs>
	<path fill="url(#gradient_6)" d="M562.48 114.158C589.971 110.729 615.431 112.799 642.472 118.15C644.634 118.578 649.509 120.292 650.975 118.941L650.87 119.603C648.109 118.607 644.605 117.196 641.682 117.094L640.348 114.967C641.666 114.966 642.324 115.226 643.511 115.799C650.679 119.26 658.929 120.841 666.376 123.815C685.225 131.344 704.173 141.655 720.786 153.301Q739.052 166.257 755.9 181.01C761.825 186.21 767.337 192.647 773.794 197.111C773.963 197.228 774.126 197.353 774.297 197.466C776.544 198.959 780.901 198.401 783.646 198.823C783.223 199.69 782.765 200.466 782.228 201.267C781.219 201.626 780.369 201.653 779.321 201.389C776.7 200.73 774.227 199.205 771.581 198.43C762.406 195.742 752.996 193.502 743.636 191.568C717.404 186.147 690.028 184.956 663.318 185.969C645.548 159.895 617.265 136.58 588.279 123.916C583.8 121.959 579.235 120.01 574.605 118.443C571.022 117.229 565.328 116.788 562.281 114.79L562.48 114.158Z"/>
	<path fill="#8B3594" d="M356.853 146.474C388.55 147.535 423.528 145.192 454.055 136.134C474.909 129.945 494.546 122.032 515.922 117.304C546.119 110.626 577.676 108.034 608.477 111.573C619.605 112.852 630.665 115.088 641.682 117.094C644.605 117.196 648.109 118.607 650.87 119.603L650.975 118.941C649.509 120.292 644.634 118.578 642.472 118.15C615.431 112.799 589.971 110.729 562.48 114.158Q547.667 116.403 533.078 119.81Q518.49 123.217 504.215 127.765C498.23 129.621 486.572 134.992 481.642 135.732C463.605 143.173 446.794 152.085 429.64 161.328C422.485 164.765 415.734 169.824 409.221 174.327C368.71 202.338 333.176 240.833 307.67 282.936C294.896 300.023 275.879 344.973 269.356 365.642C267.018 356.168 288.485 309.017 293.287 299.424C296.383 293.239 300.448 287.542 303.52 281.344L303.733 280.906C289.283 272.903 270.387 269.096 254.006 268.08C249.165 267.779 244.121 268.447 239.34 267.725C239.2 267.704 239.061 267.679 238.922 267.656C261.313 226.024 294.933 189.625 333.084 161.928C340.586 156.481 348.5 150.54 356.853 146.474Z"/>
	<path fill="#270332" d="M303.733 280.906Q308.599 272.944 313.903 265.267Q319.208 257.589 324.934 250.221Q330.66 242.853 336.789 235.817Q342.919 228.781 349.433 222.1C381.516 189.424 418.525 164.071 459.752 144.284C465.025 141.753 475.95 135.785 481.642 135.732C463.605 143.173 446.794 152.085 429.64 161.328C422.485 164.765 415.734 169.824 409.221 174.327C368.71 202.338 333.176 240.833 307.67 282.936C294.896 300.023 275.879 344.973 269.356 365.642C267.018 356.168 288.485 309.017 293.287 299.424C296.383 293.239 300.448 287.542 303.52 281.344L303.733 280.906Z"/>
	<path fill="#CEA3D3" d="M481.642 135.732C486.572 134.992 498.23 129.621 504.215 127.765Q518.49 123.217 533.078 119.81Q547.668 116.403 562.48 114.158L562.281 114.79C565.328 116.788 571.022 117.229 574.605 118.443C579.235 120.01 583.8 121.959 588.279 123.916C617.265 136.58 645.548 159.895 663.318 185.969C628.711 186.594 575.32 198.818 544.382 214.155C539.625 215.568 535.012 217.734 530.428 219.633C525.837 215.168 520.538 211.156 515.537 207.163C495.443 191.123 473.717 176.633 449.615 167.348C443.247 164.895 436.881 163.571 430.429 161.578L429.64 161.328C446.794 152.085 463.605 143.173 481.642 135.732Z"/>
	<path fill="#5F0F6C" d="M238.922 267.656C239.061 267.679 239.2 267.704 239.34 267.725C244.121 268.447 249.165 267.779 254.006 268.08C270.387 269.096 289.283 272.903 303.733 280.906L303.52 281.344C300.448 287.542 296.383 293.239 293.287 299.424C288.485 309.017 267.018 356.168 269.356 365.642C275.879 344.973 294.896 300.023 307.67 282.936C324.392 291.656 339.691 301.866 354.747 313.195C363.601 319.857 372.433 327.562 381.902 333.294C384.596 330.615 387.066 327.607 389.841 325.043C392.455 324.76 399.473 313.602 403.129 311.873C401.059 313.907 398.744 316.82 397.472 319.454C396.825 320.794 396.489 322.193 395.615 323.415L395.835 323.815C390.641 329.917 385.418 335.757 382.767 343.481C372.596 365.959 364.027 389.305 361.323 413.964C353.924 400.647 344.883 386.118 330.591 379.32Q331.821 371.132 333.839 363.102Q335.857 355.072 338.644 347.275C340.021 343.329 348.312 324.656 348.436 322.846C339.333 335.434 331.37 362.216 327.646 377.797C316.699 367.518 301.615 362.621 286.736 363.107C280.821 363.3 275.253 364.519 269.538 365.922C268.375 366.662 267.218 367.355 265.997 367.995L265.67 368.616L263.491 369.232C263.298 370.099 263.16 370.994 262.809 371.812C256.872 371.763 249.026 376.045 243.955 379.127C238.051 380.484 233.051 382.668 227.43 384.688C224.824 385.732 222.499 390.049 221.439 392.572C221.324 392.844 221.219 393.119 221.109 393.393C212.584 394.354 205.681 398.409 198.471 402.714C200.063 393.529 200.26 384.097 201.79 374.883C208.219 336.166 220.172 302.06 238.922 267.656Z"/>
	<path fill="#FEFEC9" d="M263.491 369.232C263.298 370.099 263.16 370.994 262.809 371.812C256.872 371.763 249.026 376.045 243.955 379.127C238.051 380.484 233.051 382.668 227.43 384.688C236.465 375.222 251.246 371.983 263.491 369.232Z"/>
	<path fill="#8B3594" d="M307.67 282.936C333.176 240.833 368.71 202.338 409.221 174.327C415.734 169.824 422.485 164.765 429.64 161.328L430.429 161.578C436.881 163.571 443.247 164.895 449.615 167.348C473.717 176.633 495.443 191.123 515.537 207.163C520.538 211.156 525.837 215.168 530.428 219.633C535.012 217.734 539.625 215.568 544.382 214.155C541.33 217.051 530.698 221.411 526.626 222.782C497.172 237.964 469.822 255.127 444.062 276.008C439.752 279.501 433.657 283.633 430.419 288.154C426.566 289.525 414.734 300.96 412.589 304.429L413.01 304.206C414.281 303.52 415.246 302.85 416.311 301.878C416.316 302.187 416.317 302.497 416.328 302.806C416.371 303.975 416.249 303.533 416.657 304.381C413.157 308.161 409.016 311.653 404.993 314.861Q400.279 319.2 395.835 323.815L395.615 323.415C396.489 322.193 396.825 320.794 397.472 319.454C398.744 316.82 401.059 313.907 403.129 311.873C399.473 313.602 392.455 324.76 389.841 325.043C387.066 327.607 384.596 330.615 381.902 333.294C372.433 327.562 363.601 319.857 354.747 313.195C339.691 301.866 324.392 291.656 307.67 282.936Z"/>
	<path fill="#791C85" d="M389.841 325.043C389.883 324.916 389.912 324.783 389.965 324.66C391.715 320.661 401.555 311.783 405.164 308.117C435.292 277.507 468.792 250.291 507.37 230.978C513.392 227.964 519.439 224.828 525.701 222.352L526.626 222.782C497.172 237.964 469.822 255.127 444.062 276.008C439.752 279.501 433.657 283.633 430.419 288.154C426.566 289.525 414.734 300.96 412.589 304.429L413.01 304.206C414.281 303.52 415.246 302.85 416.311 301.878C416.316 302.187 416.317 302.497 416.328 302.806C416.371 303.975 416.249 303.533 416.657 304.381C413.157 308.161 409.016 311.653 404.993 314.861Q400.279 319.2 395.835 323.815L395.615 323.415C396.489 322.193 396.825 320.794 397.472 319.454C398.744 316.82 401.059 313.907 403.129 311.873C399.473 313.602 392.455 324.76 389.841 325.043Z"/>
	<path fill="#590C56" d="M0 12.5848C28.798 39.7198 56.7199 67.6744 84.7883 95.5559L180.315 190.406L219.244 229.376C224.85 234.991 233.07 245.171 239.826 248.962Q237.434 252.835 235.148 256.772Q232.862 260.709 230.684 264.706Q228.505 268.703 226.436 272.758Q224.366 276.813 222.407 280.922Q220.449 285.032 218.602 289.193Q216.755 293.353 215.022 297.563Q213.288 301.772 211.669 306.027Q210.051 310.282 208.548 314.579Q207.045 318.876 205.659 323.212Q204.273 327.549 203.005 331.921Q201.737 336.293 200.588 340.698Q199.439 345.103 198.409 349.537Q197.38 353.972 196.471 358.432Q195.562 362.893 194.774 367.377Q193.987 371.86 193.321 376.364Q192.655 380.867 192.111 385.387C191.38 391.726 189.389 401.113 190.824 407.352L191.616 408.288C191.598 408.446 191.578 408.603 191.563 408.761C191.386 410.598 191.534 411.368 192.651 412.865C188.306 416.878 184.68 421.329 181.326 426.199C179.856 428.51 175.096 438.17 173.288 439.332C170.479 444.337 169.033 451.142 167.791 456.717C161.26 486.035 162.594 517.959 170.732 546.821C175.429 563.479 182.214 579.275 194.118 592.111C196.591 597.998 202.192 603.429 206.437 608.145C208.731 611.157 211.16 614.003 213.667 616.839C215.876 619.084 225.047 626.084 225.618 628.235L225.26 629.393C225.353 629.622 225.45 629.85 225.539 630.081C226.55 632.675 226.591 635.693 227.421 638.386C230.157 647.261 236.053 655.626 242.273 662.397C247.213 667.773 252.887 672.333 258.985 676.329C273.707 685.977 290.032 693.389 305.781 701.199Q347.911 722.003 390.584 741.669Q453.119 771.371 517.264 797.414C549.195 810.557 585.426 826.184 619.406 831.712C642.482 835.467 668.876 835.011 690.979 826.861Q692.317 826.378 693.623 825.817Q694.93 825.256 696.202 824.62Q697.474 823.984 698.706 823.274Q699.939 822.565 701.128 821.784Q702.316 821.004 703.457 820.155Q704.598 819.306 705.688 818.392Q706.777 817.478 707.811 816.501Q708.845 815.525 709.82 814.49L710.038 814.084C716.461 809.826 722.425 802.726 727.842 797.207C746.601 778.095 766.724 757.553 782.311 735.772Q789.117 725.549 796.09 715.439C802.07 705.117 808.319 694.99 813.813 684.39Q821.21 669.775 827.296 654.568Q833.382 639.36 838.109 623.677C839.119 623.835 839.867 623.986 840.689 624.637C846.759 629.436 852.305 636.36 857.841 641.866L893.945 677.308L981.107 763.162L1011.18 792.602C1015.35 796.722 1020.38 800.901 1024 805.455L1024 958.733L1024 980.016L1024 1024L1023.19 1024L1000.39 1024L993.474 1024L955.282 1024L945.664 1024L891.239 1024L887.5 1024L745.152 1024L715.377 1024L468.715 1024L418.143 1024L330.957 1024L306.541 1024L286.492 1024L188.301 1024L162.954 1024L130.513 1024L84.4099 1024L0 1024L0 978.002L0 938.903L0 926.238L0 906.297L0 891.78L0 727.209L0 12.5848Z"/>
	<path fill="#3F0443" d="M154.91 821.414L155.581 822.137C158.097 824.88 160.017 828.089 162.616 830.788C172.541 841.09 183.275 850.581 194.12 859.89C292.178 944.066 436.771 1003.21 565.88 1010.06C618.817 1012.86 676.717 1008.25 726.903 990.441C732.916 988.308 743.297 985.241 747.843 981.054C748.243 980.686 748.315 980.572 748.619 980.192C754.035 978 759.412 975.773 764.645 973.164C795.984 957.541 816.576 936.514 827.906 903.013C828.009 907.85 825.914 913.346 824.272 917.852C816.923 938.012 805.249 954.424 790.543 969.81C774.728 986.357 756.071 1000.32 736.476 1012.08C729.595 1016.21 722.06 1019.61 715.377 1024L468.715 1024C460.427 1020.01 448.853 1017.6 439.934 1014.74Q419.872 1008.07 400.241 1000.22Q388.387 995.497 376.715 990.344Q365.042 985.191 353.565 979.615Q342.089 974.038 330.824 968.045Q319.559 962.052 308.521 955.651Q297.484 949.25 286.687 942.449Q275.891 935.648 265.351 928.457Q254.811 921.265 244.541 913.693Q234.271 906.121 224.285 898.178C204.917 882.624 157.526 845.194 154.91 821.414Z"/>
	<path fill="#791C85" d="M121.987 835.323C132.786 828.667 142.616 820.707 152.532 812.835C154.078 815.407 154.514 818.477 154.91 821.414C157.526 845.194 204.917 882.624 224.285 898.178Q234.271 906.121 244.541 913.693Q254.811 921.265 265.351 928.457Q275.891 935.648 286.687 942.449Q297.484 949.25 308.521 955.651Q319.559 962.052 330.824 968.045Q342.089 974.038 353.565 979.615Q365.042 985.191 376.715 990.344Q388.387 995.497 400.241 1000.22Q419.872 1008.07 439.934 1014.74C448.853 1017.6 460.427 1020.01 468.715 1024L418.143 1024L330.957 1024L306.541 1024L286.492 1024C283.523 1016.92 273.523 1000.43 268.768 994.359C237.047 945.655 202.433 898.763 154.012 865.434C147.712 861.098 141.282 856.733 134.373 853.423C129.584 851.128 123.251 849.413 118.983 846.421C118.789 846.286 118.6 846.145 118.409 846.006C119.419 842.894 121.517 840.79 123.654 838.41C122.738 837.419 122.446 836.565 121.987 835.323Z"/>
	<path fill="#BE3FA9" d="M288.345 965.59C297.512 969.641 306.158 975.155 315.012 979.863Q338.631 992.379 362.992 1003.38C374.694 1008.57 386.664 1012.86 398.749 1017.05C404.913 1019.19 412.415 1020.95 418.143 1024L330.957 1024C323.387 1014.19 316.356 1003.94 309.002 993.966C302.037 984.52 294.745 975.451 288.345 965.59Z"/>
	<path fill="#3F0443" d="M123.654 838.41C127.785 836.885 132.707 838.759 136.527 840.491C175.708 858.258 214.77 897.907 241.582 931.196C254.292 946.975 265.946 963.661 277.464 980.323C287.379 994.667 296.279 1009.94 306.541 1024L286.492 1024C283.523 1016.92 273.523 1000.43 268.768 994.359C237.047 945.655 202.433 898.763 154.012 865.434C147.712 861.098 141.282 856.733 134.373 853.423C129.584 851.128 123.251 849.413 118.983 846.421C118.789 846.286 118.6 846.145 118.409 846.006C119.419 842.894 121.517 840.79 123.654 838.41Z"/>
	<path fill="#3F0443" d="M671.553 973.201C670.683 972.695 669.759 972.262 668.75 972.14C657.807 970.825 641.546 972.14 630.219 972.639C616.311 973.253 601.991 973.414 588.102 972.552C532.858 969.123 478.997 960.341 425.948 944.35C412.626 940.334 399.289 936.161 386.317 931.114C315.843 903.693 245.972 866.884 197.02 807.649C189.272 798.273 178.733 784.956 173.899 773.958L174.249 773.546C176.362 775.409 178.067 778.664 179.809 780.956C181.877 783.68 184.237 786.221 186.576 788.714C208.975 812.581 236.282 832.397 263.951 849.636Q271.978 854.599 280.138 859.339Q288.298 864.079 296.586 868.592Q304.873 873.105 313.282 877.389Q321.691 881.672 330.215 885.722Q338.738 889.772 347.37 893.586Q356.002 897.4 364.736 900.975Q373.469 904.55 382.298 907.882Q391.127 911.215 400.044 914.304Q408.962 917.392 417.961 920.234Q426.96 923.075 436.033 925.668Q445.107 928.26 454.249 930.602Q463.391 932.944 472.593 935.033Q481.796 937.122 491.053 938.957Q500.31 940.792 509.614 942.371Q518.918 943.951 528.261 945.273Q537.605 946.595 546.982 947.66C562.869 949.511 581.278 951.698 597.164 952.036L598.018 952.047C596.863 951.749 596.472 951.818 595.614 950.941C598.017 944.248 603.997 935.5 607.53 928.997C613.734 917.577 619.216 905.427 626.19 894.471C665.278 894.996 703.99 890.492 741.465 879.262C776.115 867.83 812.265 851.26 833.558 820.167C829.619 835.344 826.98 851.007 823.863 866.376C822.436 873.413 819.694 882.76 819.117 889.661C819.029 890.713 819.157 891.013 819.633 891.911C823.3 888.487 826.879 882.12 831.082 879.839C830.825 887.635 829.004 895.313 827.906 903.013C816.576 936.514 795.984 957.541 764.645 973.164C759.412 975.773 754.035 978 748.619 980.192C740.297 982.287 732.044 984.662 723.497 985.679C699.004 988.594 673.281 985.317 648.866 982.777Q630.755 981.018 612.626 979.446C619.126 978.107 626.611 978.224 633.266 977.668Q652.501 976.217 671.553 973.201Z"/>
	<path fill="#791C85" d="M741.465 879.262C741.819 883.231 720.092 933.53 716.611 941.189C689.268 947.715 660.686 951.005 632.613 951.884C621.13 952.243 609.449 951.317 598.018 952.047C596.863 951.749 596.472 951.818 595.614 950.941C598.017 944.248 603.997 935.5 607.53 928.997C613.734 917.577 619.216 905.427 626.19 894.471C665.278 894.996 703.99 890.492 741.465 879.262Z"/>
	<path fill="#EB6DA3" d="M741.465 879.262C776.115 867.83 812.265 851.26 833.558 820.167C829.619 835.344 826.98 851.007 823.863 866.376C822.436 873.413 819.694 882.76 819.117 889.661C819.029 890.713 819.157 891.013 819.633 891.911C823.3 888.487 826.879 882.12 831.082 879.839C830.825 887.635 829.004 895.313 827.906 903.013C816.576 936.514 795.984 957.541 764.645 973.164C759.412 975.773 754.035 978 748.619 980.192C740.297 982.287 732.044 984.662 723.497 985.679C699.004 988.594 673.281 985.317 648.866 982.777Q630.755 981.018 612.626 979.446C619.126 978.107 626.611 978.224 633.266 977.668Q652.501 976.217 671.553 973.201C689.052 970.051 706.074 966.418 723.137 961.323C753.251 952.332 786.075 936.788 806.608 912.31C811.698 906.243 815.552 899.609 819.292 892.671C791.963 918.913 752.804 932.776 716.611 941.189C720.092 933.53 741.819 883.231 741.465 879.262Z"/>
	<defs>
		<linearGradient id="gradient_7" gradientUnits="userSpaceOnUse" x1="665.35571" y1="720.95825" x2="671.12213" y2="889.93646">
			<stop offset="0" stop-color="#F27FA6"/>
			<stop offset="1" stop-color="#D3A4E0"/>
		</linearGradient>
	</defs>
	<path fill="url(#gradient_7)" d="M782.311 735.772Q789.117 725.549 796.09 715.439C799.304 717.157 805.018 720.591 807.14 723.536C825.49 737.202 838.598 758.27 841.961 780.956Q842.598 785.279 842.813 789.644Q843.028 794.008 842.818 798.373C842.566 803.117 840.144 818.897 841.009 822.17L840.889 822.494C844.691 826.745 848.884 830.721 852.325 835.274Q857.396 842.411 861.779 849.989Q866.162 857.567 869.82 865.521C872.293 870.96 874.222 877.093 877.077 882.29C879.958 890.97 883.179 899.548 885.744 908.328C891.351 927.524 896.342 953.418 896.034 973.374C895.811 989.784 895.687 1008.09 891.239 1024L887.5 1024L745.152 1024L715.377 1024C722.06 1019.61 729.595 1016.21 736.476 1012.08C756.071 1000.32 774.728 986.357 790.543 969.81C805.249 954.424 816.923 938.012 824.272 917.852C825.914 913.346 828.009 907.85 827.906 903.013C829.004 895.313 830.825 887.635 831.082 879.839C826.879 882.12 823.3 888.487 819.633 891.911C819.157 891.013 819.029 890.713 819.117 889.661C819.694 882.76 822.436 873.413 823.863 866.376C826.98 851.007 829.619 835.344 833.558 820.167C812.265 851.26 776.115 867.83 741.465 879.262C703.99 890.492 665.278 894.996 626.19 894.471Q614.747 894.11 603.3 893.897C592.715 894.142 581.825 892.926 571.284 891.989C548.362 889.951 525.632 887.32 503.047 882.818L503.306 882.083C509.381 876.474 519.495 873.847 527.419 872.493C536.754 870.898 546.289 870.786 555.734 870.515C571.724 870.057 587.728 870.107 603.707 869.368C612.2 868.975 621.246 868.907 629.303 866.013C668.956 865.549 727.966 852.539 761.063 829.616C776.877 818.663 791.629 803.607 795.134 783.984C798.197 766.832 792.095 749.741 782.311 735.772Z"/>
	<path fill="#FBF1D6" d="M593.84 890.834C635.527 887.236 678.439 885.071 719.226 875.21C756.72 866.145 804.955 845.378 825.59 811.162C840.592 786.286 835.998 758.558 818.014 736.487C815.406 733.285 807.965 726.925 807.14 723.536C825.49 737.202 838.598 758.27 841.961 780.956Q842.598 785.279 842.813 789.644Q843.028 794.008 842.818 798.373C842.566 803.117 840.144 818.897 841.009 822.17L840.889 822.494C844.691 826.745 848.884 830.721 852.325 835.274Q857.396 842.411 861.779 849.989Q866.162 857.567 869.82 865.521C872.293 870.96 874.222 877.093 877.077 882.29C879.958 890.97 883.179 899.548 885.744 908.328C891.351 927.524 896.342 953.418 896.034 973.374C895.811 989.784 895.687 1008.09 891.239 1024L887.5 1024C887.472 1021.01 887.621 1017.94 887.046 1015C886.297 1014.01 886.157 1013.01 885.935 1011.82C883.516 998.819 882.884 985.8 879.696 972.85C872.299 942.81 862.29 913.573 846.104 887.027C844.434 872.317 840.686 858.817 836.984 844.56C835.191 856.296 833.549 868.225 831.082 879.839C826.879 882.12 823.3 888.487 819.633 891.911C819.157 891.013 819.029 890.713 819.117 889.661C819.694 882.76 822.436 873.413 823.863 866.376C826.98 851.007 829.619 835.344 833.558 820.167C812.265 851.26 776.115 867.83 741.465 879.262C703.99 890.492 665.278 894.996 626.19 894.471Q614.747 894.11 603.3 893.897C602.438 893.633 601.854 893.453 600.937 893.543C599.925 893.641 600.59 893.823 599.509 893.108C600.842 892.176 604.003 892.413 605.696 892.298C601.632 892.111 597.837 891.601 593.84 890.834Z"/>
	<path fill="#3F0443" d="M837.768 838.212C838.547 833.36 838.818 826.919 840.889 822.494C844.691 826.745 848.884 830.721 852.325 835.274Q857.396 842.411 861.779 849.989Q866.162 857.567 869.82 865.521C872.293 870.96 874.222 877.093 877.077 882.29C879.958 890.97 883.179 899.548 885.744 908.328C891.351 927.524 896.342 953.418 896.034 973.374C895.811 989.784 895.687 1008.09 891.239 1024L887.5 1024C887.472 1021.01 887.621 1017.94 887.046 1015C887.048 1014.84 887.052 1014.68 887.052 1014.51C887.122 967.562 873.296 908.086 853.882 865.3C849.77 856.238 844.856 845.255 837.768 838.212Z"/>
	<path fill="#CEA3D3" d="M836.984 844.56C840.686 858.817 844.434 872.317 846.104 887.027C862.29 913.573 872.299 942.81 879.696 972.85C882.884 985.8 883.516 998.819 885.935 1011.82C886.157 1013.01 886.297 1014.01 887.046 1015C887.621 1017.94 887.472 1021.01 887.5 1024L745.152 1024L715.377 1024C722.06 1019.61 729.595 1016.21 736.476 1012.08C756.071 1000.32 774.728 986.357 790.543 969.81C805.249 954.424 816.923 938.012 824.272 917.852C825.914 913.346 828.009 907.85 827.906 903.013C829.004 895.313 830.825 887.635 831.082 879.839C833.549 868.225 835.191 856.296 836.984 844.56Z"/>
	<path fill="#8B3594" d="M836.984 844.56C840.686 858.817 844.434 872.317 846.104 887.027C845.303 896.295 844.274 905.288 841.991 914.339C834.046 945.844 813.793 971.939 789.286 992.547C775.37 1004.25 760.564 1014.38 745.152 1024L715.377 1024C722.06 1019.61 729.595 1016.21 736.476 1012.08C756.071 1000.32 774.728 986.357 790.543 969.81C805.249 954.424 816.923 938.012 824.272 917.852C825.914 913.346 828.009 907.85 827.906 903.013C829.004 895.313 830.825 887.635 831.082 879.839C833.549 868.225 835.191 856.296 836.984 844.56Z"/>
	<path fill="#270332" d="M213.667 616.839C215.876 619.084 225.047 626.084 225.618 628.235L225.26 629.393C225.353 629.622 225.45 629.85 225.539 630.081C226.55 632.675 226.591 635.693 227.421 638.386C230.157 647.261 236.053 655.626 242.273 662.397C247.213 667.773 252.887 672.333 258.985 676.329C273.707 685.977 290.032 693.389 305.781 701.199Q347.911 722.003 390.584 741.669Q453.119 771.371 517.264 797.414C549.195 810.557 585.426 826.184 619.406 831.712C642.482 835.467 668.876 835.011 690.979 826.861Q692.317 826.378 693.623 825.817Q694.93 825.256 696.202 824.62Q697.474 823.984 698.706 823.274Q699.939 822.565 701.128 821.784Q702.316 821.004 703.457 820.155Q704.598 819.306 705.688 818.392Q706.777 817.478 707.811 816.501Q708.845 815.525 709.82 814.49L710.038 814.084C716.461 809.826 722.425 802.726 727.842 797.207C746.601 778.095 766.724 757.553 782.311 735.772C792.095 749.741 798.197 766.832 795.134 783.984C791.629 803.607 776.877 818.663 761.063 829.616C727.966 852.539 668.956 865.549 629.303 866.013C621.246 868.907 612.2 868.975 603.707 869.368C587.728 870.107 571.724 870.057 555.734 870.515C546.289 870.786 536.754 870.898 527.419 872.493C519.495 873.847 509.381 876.474 503.306 882.083L503.047 882.818C497.027 880.846 485.559 879.46 478.541 877.891Q453.607 872.365 429.172 864.937C351.09 841.462 237.767 790.777 189.328 722.904C183.218 714.343 177.603 705.039 174.235 695.025C173.013 691.392 171.595 683.905 169.955 681.063C169.849 680.879 169.735 680.699 169.625 680.518C169.617 677.47 170.073 674.041 170.529 671.013C174.238 646.392 194.858 630.621 213.667 616.839Z"/>
	<path fill="#BE3FA9" d="M213.667 616.839C215.876 619.084 225.047 626.084 225.618 628.235L225.26 629.393C214.897 650.157 206.11 666.486 213.99 690.361C230.04 738.989 302.02 779.023 345.272 800.474Q353.53 804.504 361.899 808.298Q370.267 812.092 378.741 815.647Q387.214 819.202 395.785 822.514Q404.356 825.827 413.017 828.895Q421.678 831.963 430.424 834.783Q439.169 837.604 447.99 840.175Q456.812 842.746 465.703 845.065Q474.594 847.385 483.548 849.451Q492.501 851.517 501.51 853.328Q510.518 855.138 519.575 856.693Q528.631 858.247 537.728 859.543Q546.824 860.839 555.954 861.877Q565.084 862.914 574.24 863.692Q583.396 864.47 592.57 864.987Q601.744 865.504 610.929 865.761Q620.114 866.017 629.303 866.013C621.246 868.907 612.2 868.975 603.707 869.368C587.728 870.107 571.724 870.057 555.734 870.515C546.289 870.786 536.754 870.898 527.419 872.493C519.495 873.847 509.381 876.474 503.306 882.083L503.047 882.818C497.027 880.846 485.559 879.46 478.541 877.891Q453.607 872.365 429.172 864.937C351.09 841.462 237.767 790.777 189.328 722.904C183.218 714.343 177.603 705.039 174.235 695.025C173.013 691.392 171.595 683.905 169.955 681.063C169.849 680.879 169.735 680.699 169.625 680.518C169.617 677.47 170.073 674.041 170.529 671.013C174.238 646.392 194.858 630.621 213.667 616.839Z"/>
	<path fill="#5F0F6C" d="M838.109 623.677C839.119 623.835 839.867 623.986 840.689 624.637C846.759 629.436 852.305 636.36 857.841 641.866L893.945 677.308L981.107 763.162L1011.18 792.602C1015.35 796.722 1020.38 800.901 1024 805.455L1024 958.733L1024 980.016L1024 1024L1023.19 1024L1000.39 1024L993.474 1024L955.282 1024L945.664 1024L891.239 1024C895.687 1008.09 895.811 989.784 896.034 973.374C896.342 953.418 891.351 927.524 885.744 908.328C883.179 899.548 879.958 890.97 877.077 882.29C874.222 877.093 872.293 870.96 869.82 865.521Q866.162 857.567 861.779 849.989Q857.396 842.411 852.325 835.274C848.884 830.721 844.691 826.745 840.889 822.494L841.009 822.17C840.144 818.897 842.566 803.117 842.818 798.373Q843.028 794.008 842.813 789.644Q842.598 785.279 841.961 780.956C838.598 758.27 825.49 737.202 807.14 723.536C805.018 720.591 799.304 717.157 796.09 715.439C802.07 705.117 808.319 694.99 813.813 684.39Q821.21 669.775 827.296 654.568Q833.382 639.36 838.109 623.677Z"/>
	<defs>
		<linearGradient id="gradient_8" gradientUnits="userSpaceOnUse" x1="885.20068" y1="870.09912" x2="899.75409" y2="853.64801">
			<stop offset="0" stop-color="#FFFAD6"/>
			<stop offset="1" stop-color="#F6E6DC"/>
		</linearGradient>
	</defs>
	<path fill="url(#gradient_8)" d="M841.009 822.17C854.401 823.608 881.184 837.5 891.825 845.684C897.485 850.038 902.455 855.172 906.942 860.714C921.416 878.59 930.092 898.839 936.124 920.869C933.464 918.739 928.028 905.424 925.587 901.632Q923.287 896.979 920.901 892.369C908.601 869.109 890.142 852.869 867.234 840.482C863.695 838.568 859.853 835.655 855.955 834.632C854.283 834.193 853.808 834.448 852.325 835.274C848.884 830.721 844.691 826.745 840.889 822.494L841.009 822.17Z"/>
	<defs>
		<linearGradient id="gradient_9" gradientUnits="userSpaceOnUse" x1="862.81842" y1="873.41998" x2="914.23419" y2="861.30328">
			<stop offset="0" stop-color="#DEC6C6"/>
			<stop offset="1" stop-color="#D3B6D0"/>
		</linearGradient>
	</defs>
	<path fill="url(#gradient_9)" d="M852.325 835.274C853.808 834.448 854.283 834.193 855.955 834.632C859.853 835.655 863.695 838.568 867.234 840.482C890.142 852.869 908.601 869.109 920.901 892.369Q923.287 896.979 925.587 901.632C918.346 899.186 911.493 894.95 904.453 891.892C895.642 888.065 886.182 885.338 877.077 882.29C874.222 877.093 872.293 870.96 869.82 865.521Q866.162 857.567 861.779 849.989Q857.396 842.411 852.325 835.274Z"/>
	<defs>
		<linearGradient id="gradient_10" gradientUnits="userSpaceOnUse" x1="964.18317" y1="930.66852" x2="987.36127" y2="912.75098">
			<stop offset="0" stop-color="#D7B9C5"/>
			<stop offset="1" stop-color="#FFFFEB"/>
		</linearGradient>
	</defs>
	<path fill="url(#gradient_10)" d="M911.991 858.339C921.272 862.915 930.882 867.823 939.322 873.835C954.965 882.774 969.989 897.269 980.474 911.734C984.044 916.658 986.513 922.92 990.504 927.41C995.32 932.829 1001.29 937.595 1006.66 942.477C1012.52 947.808 1018.13 953.411 1024 958.733L1024 980.016L1023.49 979.998C1020.32 973.596 1002.46 957.596 996.559 953.007C996.062 947.831 990.786 942.009 988.468 937.442C987.256 935.056 986.611 932.397 985.918 929.822C972.861 921.479 959.864 914.695 945.697 908.421C942.984 904.701 940.024 896.624 937.727 892.164C933.93 884.794 929.3 877.913 924.579 871.114C920.596 866.564 916.636 862.231 911.991 858.339Z"/>
	<path fill="#FBF1D6" d="M911.991 858.339C921.272 862.915 930.882 867.823 939.322 873.835C936.521 874.907 930.365 867.821 926.539 867.673C926.579 872.703 937.167 879.023 940.212 883.02C940.404 883.273 940.569 883.544 940.748 883.807L940.867 883.857C935.278 881.763 931.095 871.664 924.579 871.114C920.596 866.564 916.636 862.231 911.991 858.339Z"/>
	<path fill="#8B3594" d="M945.697 908.421C959.864 914.695 972.861 921.479 985.918 929.822C986.611 932.397 987.256 935.056 988.468 937.442C990.786 942.009 996.062 947.831 996.559 953.007C1002.46 957.596 1020.32 973.596 1023.49 979.998L1024 980.016L1024 1024L1023.19 1024L1000.39 1024L993.474 1024L955.282 1024C959.707 1011.72 959.248 990.244 958.809 977.022C958.662 972.606 957.239 967.629 958.375 963.34C958.463 960.253 957.672 956.696 957.228 953.634C954.954 937.946 950.755 923.404 945.697 908.421Z"/>
	<path fill="#590C56" d="M955.282 1024C959.707 1011.72 959.248 990.244 958.809 977.022C958.662 972.606 957.239 967.629 958.375 963.34C960.151 973.894 960.062 984.9 960.051 995.573C971.896 999.255 982.862 1005.52 994.548 1009.53C994.184 1014.32 993.534 1019.21 993.474 1024L955.282 1024Z"/>
	<path fill="#CEA3D3" d="M994.548 1009.53C996.922 991.149 997.124 971.488 996.559 953.007C1002.46 957.596 1020.32 973.596 1023.49 979.998L1024 980.016L1024 1024L1023.19 1024L1000.39 1024L993.474 1024C993.534 1019.21 994.184 1014.32 994.548 1009.53Z"/>
	<path fill="#D7AFC6" d="M1023.49 979.998L1024 980.016L1024 1024L1023.19 1024C1023.75 1009.36 1022.67 994.583 1023.49 979.998Z"/>
	<path fill="#3F0443" d="M994.548 1009.53C996.922 991.149 997.124 971.488 996.559 953.007C1002.63 970.481 1002.34 1005.3 1000.39 1024L993.474 1024C993.534 1019.21 994.184 1014.32 994.548 1009.53Z"/>
	<path fill="#8B3594" d="M877.077 882.29C886.182 885.338 895.642 888.065 904.453 891.892C911.493 894.95 918.346 899.186 925.587 901.632C928.028 905.424 933.464 918.739 936.124 920.869C939.938 930.42 941.382 941.728 943.12 951.819L943.747 951.329C944.758 954.044 944.754 957.75 945.085 960.663C947.497 981.887 946.279 1002.74 945.664 1024L891.239 1024C895.687 1008.09 895.811 989.784 896.034 973.374C896.342 953.418 891.351 927.524 885.744 908.328C883.179 899.548 879.958 890.97 877.077 882.29Z"/>
	<path fill="#590C56" d="M943.12 951.819L943.747 951.329C944.758 954.044 944.754 957.75 945.085 960.663C947.497 981.887 946.279 1002.74 945.664 1024L891.239 1024C895.687 1008.09 895.811 989.784 896.034 973.374C912.702 979.3 929.541 984.72 945.914 991.445C945.78 978.073 944.821 965.075 943.12 951.819Z"/>
	<defs>
		<linearGradient id="gradient_11" gradientUnits="userSpaceOnUse" x1="-122.92335" y1="598.70587" x2="239.26848" y2="250.31874">
			<stop offset="0" stop-color="#170641"/>
			<stop offset="1" stop-color="#371368"/>
		</linearGradient>
	</defs>
	<path fill="url(#gradient_11)" d="M0 12.5848C28.798 39.7198 56.7199 67.6744 84.7883 95.5559L180.315 190.406L219.244 229.376C224.85 234.991 233.07 245.171 239.826 248.962Q237.434 252.835 235.148 256.772Q232.862 260.709 230.684 264.706Q228.505 268.703 226.436 272.758Q224.366 276.813 222.407 280.922Q220.449 285.032 218.602 289.193Q216.755 293.353 215.022 297.563Q213.288 301.772 211.669 306.027Q210.051 310.282 208.548 314.579Q207.045 318.876 205.659 323.212Q204.273 327.549 203.005 331.921Q201.737 336.293 200.588 340.698Q199.439 345.103 198.409 349.537Q197.38 353.972 196.471 358.432Q195.562 362.893 194.774 367.377Q193.987 371.86 193.321 376.364Q192.655 380.867 192.111 385.387C191.38 391.726 189.389 401.113 190.824 407.352L191.616 408.288C191.598 408.446 191.578 408.603 191.563 408.761C191.386 410.598 191.534 411.368 192.651 412.865C188.306 416.878 184.68 421.329 181.326 426.199C179.856 428.51 175.096 438.17 173.288 439.332C170.479 444.337 169.033 451.142 167.791 456.717C161.26 486.035 162.594 517.959 170.732 546.821C175.429 563.479 182.214 579.275 194.118 592.111C196.591 597.998 202.192 603.429 206.437 608.145C208.731 611.157 211.16 614.003 213.667 616.839C194.858 630.621 174.238 646.392 170.529 671.013C170.073 674.041 169.617 677.47 169.625 680.518C168.433 707.423 167.885 734.755 164.919 761.525C159.138 765.097 157.63 768.483 156.091 774.989C154.468 781.849 150.808 806.763 152.532 812.835C142.616 820.707 132.786 828.667 121.987 835.323C122.446 836.565 122.738 837.419 123.654 838.41C121.517 840.79 119.419 842.894 118.409 846.006C118.6 846.145 118.789 846.286 118.983 846.421C123.251 849.413 129.584 851.128 134.373 853.423C141.282 856.733 147.712 861.098 154.012 865.434C202.433 898.763 237.047 945.655 268.768 994.359C273.523 1000.43 283.523 1016.92 286.492 1024L188.301 1024L162.954 1024L130.513 1024L84.4099 1024L0 1024L0 978.002L0 938.903L0 926.238L0 906.297L0 891.78L0 727.209L0 12.5848Z"/>
	<path fill="#FEFEC9" d="M190.824 407.352L191.616 408.288C191.598 408.446 191.578 408.603 191.563 408.761C191.386 410.598 191.534 411.368 192.651 412.865C188.306 416.878 184.68 421.329 181.326 426.199C179.856 428.51 175.096 438.17 173.288 439.332C175.423 433.624 177.879 428.233 181.07 423.029C184.058 418.157 189.273 412.711 190.824 407.352Z"/>
	<path fill="#FBF1D6" d="M206.437 608.145C208.731 611.157 211.16 614.003 213.667 616.839C194.858 630.621 174.238 646.392 170.529 671.013C170.073 674.041 169.617 677.47 169.625 680.518C168.433 707.423 167.885 734.755 164.919 761.525C159.138 765.097 157.63 768.483 156.091 774.989C154.468 781.849 150.808 806.763 152.532 812.835C142.616 820.707 132.786 828.667 121.987 835.323C121.49 835.75 121.144 836.095 120.491 836.264C118.577 836.76 116.102 836.559 114.107 836.753C109.622 837.189 105.28 838.228 101.024 839.685C106.594 842.311 112.497 843.769 118.165 846.073C116.173 847.817 94.9449 856.916 90.4489 859.243C81.2245 864.016 72.388 869.425 63.4037 874.624C98.4244 887.949 127.204 907.433 154.772 932.803C157.593 935.4 165.718 941.971 167.077 945.288C167.141 945.443 167.167 945.61 167.212 945.771C149.207 926.368 123.423 907.516 100.212 894.871C78.5871 883.09 52.1182 872.93 27.2115 877.639C21.4551 878.727 16.4616 881.288 10.9352 882.851L10.1375 883.07C17.0044 877.429 25.2128 872.665 32.7929 868.05C54.942 854.564 78.0243 842.82 101.12 831.068Q124.717 819.412 147.882 806.919Q147.901 805.834 147.942 804.749C148.42 792.228 147.695 772.131 153.712 761.322C155.713 757.727 158.333 755.294 161.318 752.538L164.291 688.244C164.749 679.496 164.589 670.464 165.743 661.787C168.712 639.461 189.511 621.247 206.437 608.145Z"/>
	<path fill="#270332" d="M0 727.209L64.9202 791.271L87.415 813.538C91.3066 817.41 95.7579 821.275 99.156 825.578C100.592 827.397 100.852 828.795 101.12 831.068C78.0243 842.82 54.942 854.564 32.7929 868.05C25.2128 872.665 17.0044 877.429 10.1375 883.07C6.47842 885.553 3.19597 888.735 0 891.78L0 727.209Z"/>
	<path fill="#8B3594" d="M121.987 835.323C122.446 836.565 122.738 837.419 123.654 838.41C121.517 840.79 119.419 842.894 118.409 846.006C118.6 846.145 118.789 846.286 118.983 846.421C123.251 849.413 129.584 851.128 134.373 853.423C141.282 856.733 147.712 861.098 154.012 865.434C202.433 898.763 237.047 945.655 268.768 994.359C263.837 997.717 258.334 1000.56 253.183 1003.59C242.956 1009.61 232.834 1015.6 222.185 1020.85C211.682 1003.4 201.067 985.78 188.409 969.784C182.096 961.806 173.41 954.052 167.688 946.418L167.212 945.771C167.167 945.61 167.141 945.443 167.077 945.288C165.718 941.971 157.593 935.4 154.772 932.803C127.204 907.433 98.4244 887.949 63.4037 874.624C72.388 869.425 81.2245 864.016 90.4489 859.243C94.9449 856.916 116.173 847.817 118.165 846.073C112.497 843.769 106.594 842.311 101.024 839.685C105.28 838.228 109.622 837.189 114.107 836.753C116.102 836.559 118.577 836.76 120.491 836.264C121.144 836.095 121.49 835.75 121.987 835.323Z"/>
	<path fill="#5F0F6C" d="M10.1375 883.07L10.9352 882.851C16.4616 881.288 21.4551 878.727 27.2115 877.639C52.1182 872.93 78.5871 883.09 100.212 894.871C123.423 907.516 149.207 926.368 167.212 945.771L167.688 946.418C173.41 954.052 182.096 961.806 188.409 969.784C201.067 985.78 211.682 1003.4 222.185 1020.85C232.834 1015.6 242.956 1009.61 253.183 1003.59C258.334 1000.56 263.837 997.717 268.768 994.359C273.523 1000.43 283.523 1016.92 286.492 1024L188.301 1024L162.954 1024L130.513 1024L84.4099 1024L0 1024L0 978.002L0 938.903L0 926.238L0 906.297L0 891.78C3.19597 888.735 6.47842 885.553 10.1375 883.07Z"/>
	<path fill="#3F0443" d="M0 906.297C9.2728 904.364 18.5678 902.283 28.0849 902.146C54.3886 901.768 81.4154 914.142 103.019 928.325C143.189 954.698 164.871 982.789 188.301 1024L162.954 1024C160.306 1017.12 155.582 1009.98 151.559 1003.78C132.354 974.17 106.675 949.203 74.5153 934.013C56.8292 925.659 35.6395 918.586 15.8851 921.68C10.3664 922.544 5.23197 924.361 0 926.238L0 906.297Z"/>
	<path fill="#8B3594" d="M0 926.238C5.23197 924.361 10.3664 922.544 15.8851 921.68C35.6395 918.586 56.8292 925.659 74.5153 934.013C106.675 949.203 132.354 974.17 151.559 1003.78C155.582 1009.98 160.306 1017.12 162.954 1024L130.513 1024C121.126 1009.73 110.914 996.07 98.8339 983.95C77.3501 962.397 50.0228 944.487 19.4556 939.937C12.9685 938.972 6.53884 938.921 0 938.903L0 926.238Z"/>
	<path fill="#C990D7" d="M0 938.903C6.53884 938.921 12.9685 938.972 19.4556 939.937C50.0228 944.487 77.3501 962.397 98.8339 983.95C110.914 996.07 121.126 1009.73 130.513 1024L84.4099 1024L0 1024L0 978.002L0 938.903Z"/>
	<path fill="#8B3594" d="M0 978.002C33.9759 982.863 61.4733 998.704 84.4099 1024L0 1024L0 978.002Z"/>
</svg>
