<svg width="1440" height="501" viewBox="0 0 1440 501" fill="none" xmlns="http://www.w3.org/2000/svg">
<g clip-path="url(#clip0_1_4)">
<path d="M363.878 234.147L503.395 475.797H224.361L363.878 234.147Z" fill="#60FDF4"/>
<path d="M1403.4 173.096L1400.58 190.236L1123.24 144.624L1126.06 127.484L1403.4 173.096Z" fill="#FB72FF"/>
<path d="M1403.4 458.658L1400.58 475.798L1123.24 430.186L1126.06 413.046L1403.4 458.658Z" fill="#FB72FF"/>
<path d="M1220.7 315.558L1223.51 332.698L1500.85 287.086L1498.03 269.946L1220.7 315.558Z" fill="#FB72FF"/>
<path d="M964.845 476.697H1047.65V495.597H964.845V476.697Z" fill="#62EB9A"/>
<path d="M697.496 213.121C675.693 218.119 662.071 239.844 667.069 261.646C672.067 283.448 693.793 297.071 715.595 292.073C737.397 287.075 751.019 265.349 746.021 243.547C741.023 221.745 719.298 208.123 697.496 213.121ZM787.247 423.382L708.295 441.481L676.119 301.122L535.76 333.298L517.66 254.346L658.02 222.17L625.843 81.811L704.795 63.7118L736.972 204.071L877.331 171.895L895.43 250.847L755.071 283.023L787.247 423.382Z" fill="#FFD426"/>
<path d="M886.761 435.695C886.761 458.062 868.629 476.195 846.261 476.195C823.893 476.195 805.761 458.062 805.761 435.695C805.761 413.327 823.893 395.195 846.261 395.195C868.629 395.195 886.761 413.327 886.761 435.695Z" fill="#4CABE1"/>
<path d="M401.2 187.015L337.809 136.591L296.35 188.713L192.811 106.354L142.387 169.745L245.926 252.104L108.101 425.373L171.492 475.797L401.2 187.015Z" fill="#FB72FF"/>
<path d="M-351.405 293.997C-351.162 394.444 -269.66 475.797 -169.156 475.797C-68.6519 475.797 12.8503 394.444 13.0933 293.997H-68.8067C-69.0488 349.212 -113.884 393.897 -169.156 393.897C-224.428 393.897 -269.263 349.212 -269.505 293.997H-351.405Z" fill="#62EB9A"/>
</g>
<defs>
<clipPath id="clip0_1_4">
<rect width="1440" height="500" fill="white" transform="translate(0 0.796875)"/>
</clipPath>
</defs>
</svg>
